<?xml version="1.0" encoding="UTF-8" standalone="no"?>
<!DOCTYPE svg PUBLIC "-//W3C//DTD SVG 1.1//EN"
 "http://www.w3.org/Graphics/SVG/1.1/DTD/svg11.dtd">
<!-- Generated by graphviz version 2.43.0 (0)
 -->
<!-- Title: snakemake_dag Pages: 1 -->
<svg width="182pt" height="143pt"
 viewBox="0.00 0.00 182.00 143.00" xmlns="http://www.w3.org/2000/svg" xmlns:xlink="http://www.w3.org/1999/xlink">
<g id="graph0" class="graph" transform="scale(1 1) rotate(0) translate(4 139)">
<title>snakemake_dag</title>
<polygon fill="white" stroke="transparent" points="-4,4 -4,-139 178,-139 178,4 -4,4"/>
<!-- 0 -->
<g id="node1" class="node">
<title>0</title>
<path fill="none" stroke="#59d856" stroke-width="2" d="M102,-36C102,-36 72,-36 72,-36 66,-36 60,-30 60,-24 60,-24 60,-12 60,-12 60,-6 66,0 72,0 72,0 102,0 102,0 108,0 114,-6 114,-12 114,-12 114,-24 114,-24 114,-30 108,-36 102,-36"/>
<text text-anchor="middle" x="87" y="-15.5" font-family="sans" font-size="10.00">all</text>
</g>
<!-- 1 -->
<g id="node2" class="node">
<title>1</title>
<path fill="none" stroke="#d85656" stroke-width="2" d="M162,-135C162,-135 12,-135 12,-135 6,-135 0,-129 0,-123 0,-123 0,-84 0,-84 0,-78 6,-72 12,-72 12,-72 162,-72 162,-72 168,-72 174,-78 174,-84 174,-84 174,-123 174,-123 174,-129 168,-135 162,-135"/>
<text text-anchor="middle" x="87" y="-123" font-family="sans" font-size="10.00">download</text>
<text text-anchor="middle" x="87" y="-112" font-family="sans" font-size="10.00">driving_model: NCC&#45;NorESM1&#45;M</text>
<text text-anchor="middle" x="87" y="-101" font-family="sans" font-size="10.00">experiment: rcp85</text>
<text text-anchor="middle" x="87" y="-90" font-family="sans" font-size="10.00">rcm_model: REMO2015</text>
<text text-anchor="middle" x="87" y="-79" font-family="sans" font-size="10.00">variable: pr</text>
</g>
<!-- 1&#45;&gt;0 -->
<g id="edge1" class="edge">
<title>1&#45;&gt;0</title>
<path fill="none" stroke="grey" stroke-width="2" d="M87,-71.88C87,-63.47 87,-54.4 87,-46.19"/>
<polygon fill="grey" stroke="grey" stroke-width="2" points="90.5,-46.03 87,-36.03 83.5,-46.03 90.5,-46.03"/>
</g>
</g>
</svg>
