<?xml version="1.0" encoding="UTF-8" standalone="no"?>
<!DOCTYPE svg PUBLIC "-//W3C//DTD SVG 1.1//EN"
 "http://www.w3.org/Graphics/SVG/1.1/DTD/svg11.dtd">
<!-- Generated by graphviz version 2.43.0 (0)
 -->
<!-- Title: snakemake_dag Pages: 1 -->
<svg width="598pt" height="276pt"
 viewBox="0.00 0.00 598.00 276.00" xmlns="http://www.w3.org/2000/svg" xmlns:xlink="http://www.w3.org/1999/xlink">
<g id="graph0" class="graph" transform="scale(1 1) rotate(0) translate(4 272)">
<title>snakemake_dag</title>
<polygon fill="white" stroke="transparent" points="-4,4 -4,-272 594,-272 594,4 -4,4"/>
<!-- 0 -->
<g id="node1" class="node">
<title>0</title>
<path fill="none" stroke="#d85656" stroke-width="2" d="M298.5,-36C298.5,-36 268.5,-36 268.5,-36 262.5,-36 256.5,-30 256.5,-24 256.5,-24 256.5,-12 256.5,-12 256.5,-6 262.5,0 268.5,0 268.5,0 298.5,0 298.5,0 304.5,0 310.5,-6 310.5,-12 310.5,-12 310.5,-24 310.5,-24 310.5,-30 304.5,-36 298.5,-36"/>
<text text-anchor="middle" x="283.5" y="-15.5" font-family="sans" font-size="10.00">all</text>
</g>
<!-- 1 -->
<g id="node2" class="node">
<title>1</title>
<path fill="none" stroke="#59d856" stroke-width="2" d="M300.5,-108C300.5,-108 266.5,-108 266.5,-108 260.5,-108 254.5,-102 254.5,-96 254.5,-96 254.5,-84 254.5,-84 254.5,-78 260.5,-72 266.5,-72 266.5,-72 300.5,-72 300.5,-72 306.5,-72 312.5,-78 312.5,-84 312.5,-84 312.5,-96 312.5,-96 312.5,-102 306.5,-108 300.5,-108"/>
<text text-anchor="middle" x="283.5" y="-87.5" font-family="sans" font-size="10.00">join_exp</text>
</g>
<!-- 1&#45;&gt;0 -->
<g id="edge1" class="edge">
<title>1&#45;&gt;0</title>
<path fill="none" stroke="grey" stroke-width="2" d="M283.5,-71.7C283.5,-63.98 283.5,-54.71 283.5,-46.11"/>
<polygon fill="grey" stroke="grey" stroke-width="2" points="287,-46.1 283.5,-36.1 280,-46.1 287,-46.1"/>
</g>
<!-- 2 -->
<g id="node3" class="node">
<title>2</title>
<path fill="none" stroke="#d6d856" stroke-width="2" d="M71,-180C71,-180 12,-180 12,-180 6,-180 0,-174 0,-168 0,-168 0,-156 0,-156 0,-150 6,-144 12,-144 12,-144 71,-144 71,-144 77,-144 83,-150 83,-156 83,-156 83,-168 83,-168 83,-174 77,-180 71,-180"/>
<text text-anchor="middle" x="41.5" y="-165" font-family="sans" font-size="10.00">extract_var</text>
<text text-anchor="middle" x="41.5" y="-154" font-family="sans" font-size="10.00">variable: hurs</text>
</g>
<!-- 2&#45;&gt;1 -->
<g id="edge2" class="edge">
<title>2&#45;&gt;1</title>
<path fill="none" stroke="grey" stroke-width="2" d="M83.19,-146.91C86.34,-145.91 89.46,-144.93 92.5,-144 144.77,-128.05 205.69,-111.49 244.42,-101.22"/>
<polygon fill="grey" stroke="grey" stroke-width="2" points="245.47,-104.56 254.24,-98.62 243.68,-97.79 245.47,-104.56"/>
</g>
<!-- 3 -->
<g id="node4" class="node">
<title>3</title>
<path fill="none" stroke="#56d8d8" stroke-width="2" d="M366,-268C366,-268 201,-268 201,-268 195,-268 189,-262 189,-256 189,-256 189,-228 189,-228 189,-222 195,-216 201,-216 201,-216 366,-216 366,-216 372,-216 378,-222 378,-228 378,-228 378,-256 378,-256 378,-262 372,-268 366,-268"/>
<text text-anchor="middle" x="283.5" y="-256" font-family="sans" font-size="10.00">download</text>
<text text-anchor="middle" x="283.5" y="-245" font-family="sans" font-size="10.00">driving_model: MPI&#45;M&#45;MPI&#45;ESM&#45;MR</text>
<text text-anchor="middle" x="283.5" y="-234" font-family="sans" font-size="10.00">experiment: rcp85</text>
<text text-anchor="middle" x="283.5" y="-223" font-family="sans" font-size="10.00">rcm_model: ICTP&#45;RegCM4&#45;7</text>
</g>
<!-- 3&#45;&gt;2 -->
<g id="edge8" class="edge">
<title>3&#45;&gt;2</title>
<path fill="none" stroke="grey" stroke-width="2" d="M204.44,-216C172.44,-205.82 134.94,-193.81 92.86,-180.1"/>
<polygon fill="grey" stroke="grey" stroke-width="2" points="93.83,-176.73 83.23,-176.96 91.66,-183.39 93.83,-176.73"/>
</g>
<!-- 4 -->
<g id="node5" class="node">
<title>4</title>
<path fill="none" stroke="#d6d856" stroke-width="2" d="M161.5,-180C161.5,-180 113.5,-180 113.5,-180 107.5,-180 101.5,-174 101.5,-168 101.5,-168 101.5,-156 101.5,-156 101.5,-150 107.5,-144 113.5,-144 113.5,-144 161.5,-144 161.5,-144 167.5,-144 173.5,-150 173.5,-156 173.5,-156 173.5,-168 173.5,-168 173.5,-174 167.5,-180 161.5,-180"/>
<text text-anchor="middle" x="137.5" y="-165" font-family="sans" font-size="10.00">extract_var</text>
<text text-anchor="middle" x="137.5" y="-154" font-family="sans" font-size="10.00">variable: pr</text>
</g>
<!-- 3&#45;&gt;4 -->
<g id="edge9" class="edge">
<title>3&#45;&gt;4</title>
<path fill="none" stroke="grey" stroke-width="2" d="M236.5,-215.89C217.9,-205.95 196.71,-194.63 178.72,-185.02"/>
<polygon fill="grey" stroke="grey" stroke-width="2" points="180.11,-181.8 169.64,-180.17 176.81,-187.97 180.11,-181.8"/>
</g>
<!-- 5 -->
<g id="node6" class="node">
<title>5</title>
<path fill="none" stroke="#d6d856" stroke-width="2" d="M263,-180C263,-180 204,-180 204,-180 198,-180 192,-174 192,-168 192,-168 192,-156 192,-156 192,-150 198,-144 204,-144 204,-144 263,-144 263,-144 269,-144 275,-150 275,-156 275,-156 275,-168 275,-168 275,-174 269,-180 263,-180"/>
<text text-anchor="middle" x="233.5" y="-165" font-family="sans" font-size="10.00">extract_var</text>
<text text-anchor="middle" x="233.5" y="-154" font-family="sans" font-size="10.00">variable: rsds</text>
</g>
<!-- 3&#45;&gt;5 -->
<g id="edge10" class="edge">
<title>3&#45;&gt;5</title>
<path fill="none" stroke="grey" stroke-width="2" d="M267.4,-215.89C261.9,-207.3 255.72,-197.67 250.17,-189.01"/>
<polygon fill="grey" stroke="grey" stroke-width="2" points="253,-186.94 244.66,-180.41 247.11,-190.72 253,-186.94"/>
</g>
<!-- 6 -->
<g id="node7" class="node">
<title>6</title>
<path fill="none" stroke="#d6d856" stroke-width="2" d="M364,-180C364,-180 305,-180 305,-180 299,-180 293,-174 293,-168 293,-168 293,-156 293,-156 293,-150 299,-144 305,-144 305,-144 364,-144 364,-144 370,-144 376,-150 376,-156 376,-156 376,-168 376,-168 376,-174 370,-180 364,-180"/>
<text text-anchor="middle" x="334.5" y="-165" font-family="sans" font-size="10.00">extract_var</text>
<text text-anchor="middle" x="334.5" y="-154" font-family="sans" font-size="10.00">variable: rsus</text>
</g>
<!-- 3&#45;&gt;6 -->
<g id="edge11" class="edge">
<title>3&#45;&gt;6</title>
<path fill="none" stroke="grey" stroke-width="2" d="M299.92,-215.89C305.54,-207.3 311.83,-197.67 317.5,-189.01"/>
<polygon fill="grey" stroke="grey" stroke-width="2" points="320.57,-190.7 323.12,-180.41 314.71,-186.86 320.57,-190.7"/>
</g>
<!-- 7 -->
<g id="node8" class="node">
<title>7</title>
<path fill="none" stroke="#d6d856" stroke-width="2" d="M483,-180C483,-180 406,-180 406,-180 400,-180 394,-174 394,-168 394,-168 394,-156 394,-156 394,-150 400,-144 406,-144 406,-144 483,-144 483,-144 489,-144 495,-150 495,-156 495,-156 495,-168 495,-168 495,-174 489,-180 483,-180"/>
<text text-anchor="middle" x="444.5" y="-165" font-family="sans" font-size="10.00">extract_var</text>
<text text-anchor="middle" x="444.5" y="-154" font-family="sans" font-size="10.00">variable: sfcWind</text>
</g>
<!-- 3&#45;&gt;7 -->
<g id="edge12" class="edge">
<title>3&#45;&gt;7</title>
<path fill="none" stroke="grey" stroke-width="2" d="M335.33,-215.89C356.12,-205.82 379.85,-194.32 399.86,-184.63"/>
<polygon fill="grey" stroke="grey" stroke-width="2" points="401.59,-187.68 409.06,-180.17 398.53,-181.38 401.59,-187.68"/>
</g>
<!-- 8 -->
<g id="node9" class="node">
<title>8</title>
<path fill="none" stroke="#d6d856" stroke-width="2" d="M578,-180C578,-180 525,-180 525,-180 519,-180 513,-174 513,-168 513,-168 513,-156 513,-156 513,-150 519,-144 525,-144 525,-144 578,-144 578,-144 584,-144 590,-150 590,-156 590,-156 590,-168 590,-168 590,-174 584,-180 578,-180"/>
<text text-anchor="middle" x="551.5" y="-165" font-family="sans" font-size="10.00">extract_var</text>
<text text-anchor="middle" x="551.5" y="-154" font-family="sans" font-size="10.00">variable: tas</text>
</g>
<!-- 3&#45;&gt;8 -->
<g id="edge13" class="edge">
<title>3&#45;&gt;8</title>
<path fill="none" stroke="grey" stroke-width="2" d="M378.07,-216.63C414.77,-206.76 457.27,-194.81 503.04,-180.37"/>
<polygon fill="grey" stroke="grey" stroke-width="2" points="504.38,-183.61 512.85,-177.25 502.26,-176.94 504.38,-183.61"/>
</g>
<!-- 4&#45;&gt;1 -->
<g id="edge3" class="edge">
<title>4&#45;&gt;1</title>
<path fill="none" stroke="grey" stroke-width="2" d="M173.22,-143.88C194.93,-133.46 222.67,-120.17 244.89,-109.51"/>
<polygon fill="grey" stroke="grey" stroke-width="2" points="246.54,-112.6 254.04,-105.12 243.51,-106.29 246.54,-112.6"/>
</g>
<!-- 5&#45;&gt;1 -->
<g id="edge4" class="edge">
<title>5&#45;&gt;1</title>
<path fill="none" stroke="grey" stroke-width="2" d="M245.86,-143.7C251.73,-135.47 258.87,-125.48 265.34,-116.42"/>
<polygon fill="grey" stroke="grey" stroke-width="2" points="268.32,-118.28 271.28,-108.1 262.62,-114.21 268.32,-118.28"/>
</g>
<!-- 6&#45;&gt;1 -->
<g id="edge5" class="edge">
<title>6&#45;&gt;1</title>
<path fill="none" stroke="grey" stroke-width="2" d="M321.89,-143.7C315.9,-135.47 308.62,-125.48 302.02,-116.42"/>
<polygon fill="grey" stroke="grey" stroke-width="2" points="304.68,-114.13 295.96,-108.1 299.02,-118.25 304.68,-114.13"/>
</g>
<!-- 7&#45;&gt;1 -->
<g id="edge6" class="edge">
<title>7&#45;&gt;1</title>
<path fill="none" stroke="grey" stroke-width="2" d="M405.11,-143.88C379.77,-132.86 347,-118.61 321.86,-107.68"/>
<polygon fill="grey" stroke="grey" stroke-width="2" points="323.2,-104.44 312.63,-103.67 320.41,-110.86 323.2,-104.44"/>
</g>
<!-- 8&#45;&gt;1 -->
<g id="edge7" class="edge">
<title>8&#45;&gt;1</title>
<path fill="none" stroke="grey" stroke-width="2" d="M512.89,-146.65C510.06,-145.71 507.24,-144.82 504.5,-144 441.56,-125.13 366.99,-108.39 322.55,-98.98"/>
<polygon fill="grey" stroke="grey" stroke-width="2" points="323.24,-95.55 312.74,-96.92 321.8,-102.4 323.24,-95.55"/>
</g>
</g>
</svg>
