<?xml version="1.0" encoding="UTF-8" standalone="no"?>
<!DOCTYPE svg PUBLIC "-//W3C//DTD SVG 1.1//EN"
 "http://www.w3.org/Graphics/SVG/1.1/DTD/svg11.dtd">
<!-- Generated by graphviz version 2.43.0 (0)
 -->
<!-- Title: snakemake_dag Pages: 1 -->
<svg width="607pt" height="420pt"
 viewBox="0.00 0.00 606.50 420.00" xmlns="http://www.w3.org/2000/svg" xmlns:xlink="http://www.w3.org/1999/xlink">
<g id="graph0" class="graph" transform="scale(1 1) rotate(0) translate(4 416)">
<title>snakemake_dag</title>
<polygon fill="white" stroke="transparent" points="-4,4 -4,-416 602.5,-416 602.5,4 -4,4"/>
<!-- 0 -->
<g id="node1" class="node">
<title>0</title>
<path fill="none" stroke="#afd856" stroke-width="2" d="M298.5,-36C298.5,-36 268.5,-36 268.5,-36 262.5,-36 256.5,-30 256.5,-24 256.5,-24 256.5,-12 256.5,-12 256.5,-6 262.5,0 268.5,0 268.5,0 298.5,0 298.5,0 304.5,0 310.5,-6 310.5,-12 310.5,-12 310.5,-24 310.5,-24 310.5,-30 304.5,-36 298.5,-36"/>
<text text-anchor="middle" x="283.5" y="-15.5" font-family="sans" font-size="10.00">all</text>
</g>
<!-- 1 -->
<g id="node2" class="node">
<title>1</title>
<path fill="none" stroke="#59d856" stroke-width="2" d="M301,-180C301,-180 266,-180 266,-180 260,-180 254,-174 254,-168 254,-168 254,-156 254,-156 254,-150 260,-144 266,-144 266,-144 301,-144 301,-144 307,-144 313,-150 313,-156 313,-156 313,-168 313,-168 313,-174 307,-180 301,-180"/>
<text text-anchor="middle" x="283.5" y="-159.5" font-family="sans" font-size="10.00">reformat</text>
</g>
<!-- 1&#45;&gt;0 -->
<g id="edge1" class="edge">
<title>1&#45;&gt;0</title>
<path fill="none" stroke="grey" stroke-width="2" d="M254,-158.53C198.45,-153.2 81.72,-138.56 57.5,-108 5.59,-42.51 169.49,-25.08 246.18,-20.55"/>
<polygon fill="grey" stroke="grey" stroke-width="2" points="246.59,-24.03 256.39,-19.99 246.21,-17.04 246.59,-24.03"/>
</g>
<!-- 10 -->
<g id="node11" class="node">
<title>10</title>
<path fill="none" stroke="#d85656" stroke-width="2" d="M152,-108C152,-108 79,-108 79,-108 73,-108 67,-102 67,-96 67,-96 67,-84 67,-84 67,-78 73,-72 79,-72 79,-72 152,-72 152,-72 158,-72 164,-78 164,-84 164,-84 164,-96 164,-96 164,-102 158,-108 152,-108"/>
<text text-anchor="middle" x="115.5" y="-93" font-family="sans" font-size="10.00">plot</text>
<text text-anchor="middle" x="115.5" y="-82" font-family="sans" font-size="10.00">variable: rainfall</text>
</g>
<!-- 1&#45;&gt;10 -->
<g id="edge20" class="edge">
<title>1&#45;&gt;10</title>
<path fill="none" stroke="grey" stroke-width="2" d="M253.85,-148.65C229.56,-138.53 194.65,-123.98 165.97,-112.03"/>
<polygon fill="grey" stroke="grey" stroke-width="2" points="167.09,-108.7 156.51,-108.09 164.39,-115.16 167.09,-108.7"/>
</g>
<!-- 11 -->
<g id="node12" class="node">
<title>11</title>
<path fill="none" stroke="#d85656" stroke-width="2" d="M253,-108C253,-108 194,-108 194,-108 188,-108 182,-102 182,-96 182,-96 182,-84 182,-84 182,-78 188,-72 194,-72 194,-72 253,-72 253,-72 259,-72 265,-78 265,-84 265,-84 265,-96 265,-96 265,-102 259,-108 253,-108"/>
<text text-anchor="middle" x="223.5" y="-93" font-family="sans" font-size="10.00">plot</text>
<text text-anchor="middle" x="223.5" y="-82" font-family="sans" font-size="10.00">variable: snet</text>
</g>
<!-- 1&#45;&gt;11 -->
<g id="edge21" class="edge">
<title>1&#45;&gt;11</title>
<path fill="none" stroke="grey" stroke-width="2" d="M268.67,-143.7C261.48,-135.3 252.7,-125.07 244.81,-115.86"/>
<polygon fill="grey" stroke="grey" stroke-width="2" points="247.33,-113.42 238.16,-108.1 242.01,-117.97 247.33,-113.42"/>
</g>
<!-- 12 -->
<g id="node13" class="node">
<title>12</title>
<path fill="none" stroke="#d85656" stroke-width="2" d="M394,-108C394,-108 295,-108 295,-108 289,-108 283,-102 283,-96 283,-96 283,-84 283,-84 283,-78 289,-72 295,-72 295,-72 394,-72 394,-72 400,-72 406,-78 406,-84 406,-84 406,-96 406,-96 406,-102 400,-108 394,-108"/>
<text text-anchor="middle" x="344.5" y="-93" font-family="sans" font-size="10.00">plot</text>
<text text-anchor="middle" x="344.5" y="-82" font-family="sans" font-size="10.00">variable: temperature</text>
</g>
<!-- 1&#45;&gt;12 -->
<g id="edge22" class="edge">
<title>1&#45;&gt;12</title>
<path fill="none" stroke="grey" stroke-width="2" d="M298.58,-143.7C305.89,-135.3 314.81,-125.07 322.84,-115.86"/>
<polygon fill="grey" stroke="grey" stroke-width="2" points="325.66,-117.94 329.59,-108.1 320.39,-113.34 325.66,-117.94"/>
</g>
<!-- 13 -->
<g id="node14" class="node">
<title>13</title>
<path fill="none" stroke="#d85656" stroke-width="2" d="M492.5,-108C492.5,-108 436.5,-108 436.5,-108 430.5,-108 424.5,-102 424.5,-96 424.5,-96 424.5,-84 424.5,-84 424.5,-78 430.5,-72 436.5,-72 436.5,-72 492.5,-72 492.5,-72 498.5,-72 504.5,-78 504.5,-84 504.5,-84 504.5,-96 504.5,-96 504.5,-102 498.5,-108 492.5,-108"/>
<text text-anchor="middle" x="464.5" y="-93" font-family="sans" font-size="10.00">plot</text>
<text text-anchor="middle" x="464.5" y="-82" font-family="sans" font-size="10.00">variable: vpd</text>
</g>
<!-- 1&#45;&gt;13 -->
<g id="edge23" class="edge">
<title>1&#45;&gt;13</title>
<path fill="none" stroke="grey" stroke-width="2" d="M313.39,-149.44C340.99,-138.77 382.5,-122.71 415.04,-110.13"/>
<polygon fill="grey" stroke="grey" stroke-width="2" points="416.33,-113.38 424.39,-106.51 413.8,-106.85 416.33,-113.38"/>
</g>
<!-- 14 -->
<g id="node15" class="node">
<title>14</title>
<path fill="none" stroke="#d85656" stroke-width="2" d="M586.5,-108C586.5,-108 534.5,-108 534.5,-108 528.5,-108 522.5,-102 522.5,-96 522.5,-96 522.5,-84 522.5,-84 522.5,-78 528.5,-72 534.5,-72 534.5,-72 586.5,-72 586.5,-72 592.5,-72 598.5,-78 598.5,-84 598.5,-84 598.5,-96 598.5,-96 598.5,-102 592.5,-108 586.5,-108"/>
<text text-anchor="middle" x="560.5" y="-93" font-family="sans" font-size="10.00">plot</text>
<text text-anchor="middle" x="560.5" y="-82" font-family="sans" font-size="10.00">variable: ws</text>
</g>
<!-- 1&#45;&gt;14 -->
<g id="edge24" class="edge">
<title>1&#45;&gt;14</title>
<path fill="none" stroke="grey" stroke-width="2" d="M313.2,-155.35C355.5,-147.04 435.63,-130.36 512.56,-108.1"/>
<polygon fill="grey" stroke="grey" stroke-width="2" points="513.8,-111.38 522.41,-105.21 511.83,-104.67 513.8,-111.38"/>
</g>
<!-- 2 -->
<g id="node3" class="node">
<title>2</title>
<path fill="none" stroke="#56d8a9" stroke-width="2" d="M300.5,-252C300.5,-252 266.5,-252 266.5,-252 260.5,-252 254.5,-246 254.5,-240 254.5,-240 254.5,-228 254.5,-228 254.5,-222 260.5,-216 266.5,-216 266.5,-216 300.5,-216 300.5,-216 306.5,-216 312.5,-222 312.5,-228 312.5,-228 312.5,-240 312.5,-240 312.5,-246 306.5,-252 300.5,-252"/>
<text text-anchor="middle" x="283.5" y="-231.5" font-family="sans" font-size="10.00">join_exp</text>
</g>
<!-- 2&#45;&gt;1 -->
<g id="edge7" class="edge">
<title>2&#45;&gt;1</title>
<path fill="none" stroke="grey" stroke-width="2" d="M283.5,-215.7C283.5,-207.98 283.5,-198.71 283.5,-190.11"/>
<polygon fill="grey" stroke="grey" stroke-width="2" points="287,-190.1 283.5,-180.1 280,-190.1 287,-190.1"/>
</g>
<!-- 3 -->
<g id="node4" class="node">
<title>3</title>
<path fill="none" stroke="#d8ac56" stroke-width="2" d="M71,-324C71,-324 12,-324 12,-324 6,-324 0,-318 0,-312 0,-312 0,-300 0,-300 0,-294 6,-288 12,-288 12,-288 71,-288 71,-288 77,-288 83,-294 83,-300 83,-300 83,-312 83,-312 83,-318 77,-324 71,-324"/>
<text text-anchor="middle" x="41.5" y="-309" font-family="sans" font-size="10.00">extract_var</text>
<text text-anchor="middle" x="41.5" y="-298" font-family="sans" font-size="10.00">variable: hurs</text>
</g>
<!-- 3&#45;&gt;2 -->
<g id="edge8" class="edge">
<title>3&#45;&gt;2</title>
<path fill="none" stroke="grey" stroke-width="2" d="M83.19,-290.91C86.34,-289.91 89.46,-288.93 92.5,-288 144.77,-272.05 205.69,-255.49 244.42,-245.22"/>
<polygon fill="grey" stroke="grey" stroke-width="2" points="245.47,-248.56 254.24,-242.62 243.68,-241.79 245.47,-248.56"/>
</g>
<!-- 4 -->
<g id="node5" class="node">
<title>4</title>
<path fill="none" stroke="#56a9d8" stroke-width="2" d="M366,-412C366,-412 201,-412 201,-412 195,-412 189,-406 189,-400 189,-400 189,-372 189,-372 189,-366 195,-360 201,-360 201,-360 366,-360 366,-360 372,-360 378,-366 378,-372 378,-372 378,-400 378,-400 378,-406 372,-412 366,-412"/>
<text text-anchor="middle" x="283.5" y="-400" font-family="sans" font-size="10.00">download</text>
<text text-anchor="middle" x="283.5" y="-389" font-family="sans" font-size="10.00">driving_model: MPI&#45;M&#45;MPI&#45;ESM&#45;MR</text>
<text text-anchor="middle" x="283.5" y="-378" font-family="sans" font-size="10.00">experiment: rcp85</text>
<text text-anchor="middle" x="283.5" y="-367" font-family="sans" font-size="10.00">rcm_model: ICTP&#45;RegCM4&#45;7</text>
</g>
<!-- 4&#45;&gt;3 -->
<g id="edge14" class="edge">
<title>4&#45;&gt;3</title>
<path fill="none" stroke="grey" stroke-width="2" d="M204.44,-360C172.44,-349.82 134.94,-337.81 92.86,-324.1"/>
<polygon fill="grey" stroke="grey" stroke-width="2" points="93.83,-320.73 83.23,-320.96 91.66,-327.39 93.83,-320.73"/>
</g>
<!-- 5 -->
<g id="node6" class="node">
<title>5</title>
<path fill="none" stroke="#d8ac56" stroke-width="2" d="M161.5,-324C161.5,-324 113.5,-324 113.5,-324 107.5,-324 101.5,-318 101.5,-312 101.5,-312 101.5,-300 101.5,-300 101.5,-294 107.5,-288 113.5,-288 113.5,-288 161.5,-288 161.5,-288 167.5,-288 173.5,-294 173.5,-300 173.5,-300 173.5,-312 173.5,-312 173.5,-318 167.5,-324 161.5,-324"/>
<text text-anchor="middle" x="137.5" y="-309" font-family="sans" font-size="10.00">extract_var</text>
<text text-anchor="middle" x="137.5" y="-298" font-family="sans" font-size="10.00">variable: pr</text>
</g>
<!-- 4&#45;&gt;5 -->
<g id="edge15" class="edge">
<title>4&#45;&gt;5</title>
<path fill="none" stroke="grey" stroke-width="2" d="M236.5,-359.89C217.9,-349.95 196.71,-338.63 178.72,-329.02"/>
<polygon fill="grey" stroke="grey" stroke-width="2" points="180.11,-325.8 169.64,-324.17 176.81,-331.97 180.11,-325.8"/>
</g>
<!-- 6 -->
<g id="node7" class="node">
<title>6</title>
<path fill="none" stroke="#d8ac56" stroke-width="2" d="M263,-324C263,-324 204,-324 204,-324 198,-324 192,-318 192,-312 192,-312 192,-300 192,-300 192,-294 198,-288 204,-288 204,-288 263,-288 263,-288 269,-288 275,-294 275,-300 275,-300 275,-312 275,-312 275,-318 269,-324 263,-324"/>
<text text-anchor="middle" x="233.5" y="-309" font-family="sans" font-size="10.00">extract_var</text>
<text text-anchor="middle" x="233.5" y="-298" font-family="sans" font-size="10.00">variable: rsds</text>
</g>
<!-- 4&#45;&gt;6 -->
<g id="edge16" class="edge">
<title>4&#45;&gt;6</title>
<path fill="none" stroke="grey" stroke-width="2" d="M267.4,-359.89C261.9,-351.3 255.72,-341.67 250.17,-333.01"/>
<polygon fill="grey" stroke="grey" stroke-width="2" points="253,-330.94 244.66,-324.41 247.11,-334.72 253,-330.94"/>
</g>
<!-- 7 -->
<g id="node8" class="node">
<title>7</title>
<path fill="none" stroke="#d8ac56" stroke-width="2" d="M364,-324C364,-324 305,-324 305,-324 299,-324 293,-318 293,-312 293,-312 293,-300 293,-300 293,-294 299,-288 305,-288 305,-288 364,-288 364,-288 370,-288 376,-294 376,-300 376,-300 376,-312 376,-312 376,-318 370,-324 364,-324"/>
<text text-anchor="middle" x="334.5" y="-309" font-family="sans" font-size="10.00">extract_var</text>
<text text-anchor="middle" x="334.5" y="-298" font-family="sans" font-size="10.00">variable: rsus</text>
</g>
<!-- 4&#45;&gt;7 -->
<g id="edge17" class="edge">
<title>4&#45;&gt;7</title>
<path fill="none" stroke="grey" stroke-width="2" d="M299.92,-359.89C305.54,-351.3 311.83,-341.67 317.5,-333.01"/>
<polygon fill="grey" stroke="grey" stroke-width="2" points="320.57,-334.7 323.12,-324.41 314.71,-330.86 320.57,-334.7"/>
</g>
<!-- 8 -->
<g id="node9" class="node">
<title>8</title>
<path fill="none" stroke="#d8ac56" stroke-width="2" d="M483,-324C483,-324 406,-324 406,-324 400,-324 394,-318 394,-312 394,-312 394,-300 394,-300 394,-294 400,-288 406,-288 406,-288 483,-288 483,-288 489,-288 495,-294 495,-300 495,-300 495,-312 495,-312 495,-318 489,-324 483,-324"/>
<text text-anchor="middle" x="444.5" y="-309" font-family="sans" font-size="10.00">extract_var</text>
<text text-anchor="middle" x="444.5" y="-298" font-family="sans" font-size="10.00">variable: sfcWind</text>
</g>
<!-- 4&#45;&gt;8 -->
<g id="edge18" class="edge">
<title>4&#45;&gt;8</title>
<path fill="none" stroke="grey" stroke-width="2" d="M335.33,-359.89C356.12,-349.82 379.85,-338.32 399.86,-328.63"/>
<polygon fill="grey" stroke="grey" stroke-width="2" points="401.59,-331.68 409.06,-324.17 398.53,-325.38 401.59,-331.68"/>
</g>
<!-- 9 -->
<g id="node10" class="node">
<title>9</title>
<path fill="none" stroke="#d8ac56" stroke-width="2" d="M578,-324C578,-324 525,-324 525,-324 519,-324 513,-318 513,-312 513,-312 513,-300 513,-300 513,-294 519,-288 525,-288 525,-288 578,-288 578,-288 584,-288 590,-294 590,-300 590,-300 590,-312 590,-312 590,-318 584,-324 578,-324"/>
<text text-anchor="middle" x="551.5" y="-309" font-family="sans" font-size="10.00">extract_var</text>
<text text-anchor="middle" x="551.5" y="-298" font-family="sans" font-size="10.00">variable: tas</text>
</g>
<!-- 4&#45;&gt;9 -->
<g id="edge19" class="edge">
<title>4&#45;&gt;9</title>
<path fill="none" stroke="grey" stroke-width="2" d="M378.07,-360.63C414.77,-350.76 457.27,-338.81 503.04,-324.37"/>
<polygon fill="grey" stroke="grey" stroke-width="2" points="504.38,-327.61 512.85,-321.25 502.26,-320.94 504.38,-327.61"/>
</g>
<!-- 5&#45;&gt;2 -->
<g id="edge9" class="edge">
<title>5&#45;&gt;2</title>
<path fill="none" stroke="grey" stroke-width="2" d="M173.22,-287.88C194.93,-277.46 222.67,-264.17 244.89,-253.51"/>
<polygon fill="grey" stroke="grey" stroke-width="2" points="246.54,-256.6 254.04,-249.12 243.51,-250.29 246.54,-256.6"/>
</g>
<!-- 6&#45;&gt;2 -->
<g id="edge10" class="edge">
<title>6&#45;&gt;2</title>
<path fill="none" stroke="grey" stroke-width="2" d="M245.86,-287.7C251.73,-279.47 258.87,-269.48 265.34,-260.42"/>
<polygon fill="grey" stroke="grey" stroke-width="2" points="268.32,-262.28 271.28,-252.1 262.62,-258.21 268.32,-262.28"/>
</g>
<!-- 7&#45;&gt;2 -->
<g id="edge11" class="edge">
<title>7&#45;&gt;2</title>
<path fill="none" stroke="grey" stroke-width="2" d="M321.89,-287.7C315.9,-279.47 308.62,-269.48 302.02,-260.42"/>
<polygon fill="grey" stroke="grey" stroke-width="2" points="304.68,-258.13 295.96,-252.1 299.02,-262.25 304.68,-258.13"/>
</g>
<!-- 8&#45;&gt;2 -->
<g id="edge12" class="edge">
<title>8&#45;&gt;2</title>
<path fill="none" stroke="grey" stroke-width="2" d="M405.11,-287.88C379.77,-276.86 347,-262.61 321.86,-251.68"/>
<polygon fill="grey" stroke="grey" stroke-width="2" points="323.2,-248.44 312.63,-247.67 320.41,-254.86 323.2,-248.44"/>
</g>
<!-- 9&#45;&gt;2 -->
<g id="edge13" class="edge">
<title>9&#45;&gt;2</title>
<path fill="none" stroke="grey" stroke-width="2" d="M512.89,-290.65C510.06,-289.71 507.24,-288.82 504.5,-288 441.56,-269.13 366.99,-252.39 322.55,-242.98"/>
<polygon fill="grey" stroke="grey" stroke-width="2" points="323.24,-239.55 312.74,-240.92 321.8,-246.4 323.24,-239.55"/>
</g>
<!-- 10&#45;&gt;0 -->
<g id="edge2" class="edge">
<title>10&#45;&gt;0</title>
<path fill="none" stroke="grey" stroke-width="2" d="M156.6,-71.88C184.28,-60.34 220.47,-45.26 247.11,-34.16"/>
<polygon fill="grey" stroke="grey" stroke-width="2" points="248.58,-37.34 256.46,-30.27 245.88,-30.88 248.58,-37.34"/>
</g>
<!-- 11&#45;&gt;0 -->
<g id="edge3" class="edge">
<title>11&#45;&gt;0</title>
<path fill="none" stroke="grey" stroke-width="2" d="M238.33,-71.7C245.52,-63.3 254.3,-53.07 262.19,-43.86"/>
<polygon fill="grey" stroke="grey" stroke-width="2" points="264.99,-45.97 268.84,-36.1 259.67,-41.42 264.99,-45.97"/>
</g>
<!-- 12&#45;&gt;0 -->
<g id="edge4" class="edge">
<title>12&#45;&gt;0</title>
<path fill="none" stroke="grey" stroke-width="2" d="M329.42,-71.7C322.11,-63.3 313.19,-53.07 305.16,-43.86"/>
<polygon fill="grey" stroke="grey" stroke-width="2" points="307.61,-41.34 298.41,-36.1 302.34,-45.94 307.61,-41.34"/>
</g>
<!-- 13&#45;&gt;0 -->
<g id="edge5" class="edge">
<title>13&#45;&gt;0</title>
<path fill="none" stroke="grey" stroke-width="2" d="M424.33,-73.46C393.13,-61.4 350.23,-44.81 320,-33.11"/>
<polygon fill="grey" stroke="grey" stroke-width="2" points="321.25,-29.85 310.66,-29.5 318.72,-36.37 321.25,-29.85"/>
</g>
<!-- 14&#45;&gt;0 -->
<g id="edge6" class="edge">
<title>14&#45;&gt;0</title>
<path fill="none" stroke="grey" stroke-width="2" d="M522.41,-74.79C519.41,-73.8 516.41,-72.86 513.5,-72 446.41,-52.21 366.52,-35.25 320.74,-26.14"/>
<polygon fill="grey" stroke="grey" stroke-width="2" points="321.17,-22.66 310.68,-24.16 319.82,-29.53 321.17,-22.66"/>
</g>
</g>
</svg>
