<?xml version="1.0" encoding="UTF-8" standalone="no"?>
<!DOCTYPE svg PUBLIC "-//W3C//DTD SVG 1.1//EN"
 "http://www.w3.org/Graphics/SVG/1.1/DTD/svg11.dtd">
<!-- Generated by graphviz version 2.43.0 (0)
 -->
<!-- Title: snakemake_dag Pages: 1 -->
<svg width="182pt" height="231pt"
 viewBox="0.00 0.00 182.00 231.00" xmlns="http://www.w3.org/2000/svg" xmlns:xlink="http://www.w3.org/1999/xlink">
<g id="graph0" class="graph" transform="scale(1 1) rotate(0) translate(4 227)">
<title>snakemake_dag</title>
<polygon fill="white" stroke="transparent" points="-4,4 -4,-227 178,-227 178,4 -4,4"/>
<!-- 0 -->
<g id="node1" class="node">
<title>0</title>
<path fill="none" stroke="#d85656" stroke-width="2" d="M102,-36C102,-36 72,-36 72,-36 66,-36 60,-30 60,-24 60,-24 60,-12 60,-12 60,-6 66,0 72,0 72,0 102,0 102,0 108,0 114,-6 114,-12 114,-12 114,-24 114,-24 114,-30 108,-36 102,-36"/>
<text text-anchor="middle" x="87" y="-15.5" font-family="sans" font-size="10.00">all</text>
</g>
<!-- 1 -->
<g id="node2" class="node">
<title>1</title>
<path fill="none" stroke="#59d856" stroke-width="2" d="M162,-223C162,-223 12,-223 12,-223 6,-223 0,-217 0,-211 0,-211 0,-84 0,-84 0,-78 6,-72 12,-72 12,-72 162,-72 162,-72 168,-72 174,-78 174,-84 174,-84 174,-211 174,-211 174,-217 168,-223 162,-223"/>
<text text-anchor="middle" x="87" y="-211" font-family="sans" font-size="10.00">download</text>
<text text-anchor="middle" x="87" y="-200" font-family="sans" font-size="10.00">domain: SAM&#45;22</text>
<text text-anchor="middle" x="87" y="-189" font-family="sans" font-size="10.00">downscaling: v1</text>
<text text-anchor="middle" x="87" y="-178" font-family="sans" font-size="10.00">driving_model: NCC&#45;NorESM1&#45;M</text>
<text text-anchor="middle" x="87" y="-167" font-family="sans" font-size="10.00">ensemble: r1i1p1</text>
<text text-anchor="middle" x="87" y="-156" font-family="sans" font-size="10.00">experiment: rcp85</text>
<text text-anchor="middle" x="87" y="-145" font-family="sans" font-size="10.00">frequency: 3hr</text>
<text text-anchor="middle" x="87" y="-134" font-family="sans" font-size="10.00">institute: GERICS</text>
<text text-anchor="middle" x="87" y="-123" font-family="sans" font-size="10.00">product: output</text>
<text text-anchor="middle" x="87" y="-112" font-family="sans" font-size="10.00">project: cordex</text>
<text text-anchor="middle" x="87" y="-101" font-family="sans" font-size="10.00">rcm_model: REMO2015</text>
<text text-anchor="middle" x="87" y="-90" font-family="sans" font-size="10.00">variable: pr</text>
<text text-anchor="middle" x="87" y="-79" font-family="sans" font-size="10.00">version: v20191029</text>
</g>
<!-- 1&#45;&gt;0 -->
<g id="edge1" class="edge">
<title>1&#45;&gt;0</title>
<path fill="none" stroke="grey" stroke-width="2" d="M87,-71.96C87,-62.93 87,-54.19 87,-46.5"/>
<polygon fill="grey" stroke="grey" stroke-width="2" points="90.5,-46.41 87,-36.41 83.5,-46.41 90.5,-46.41"/>
</g>
</g>
</svg>
