<?xml version="1.0" encoding="UTF-8" standalone="no"?>
<!DOCTYPE svg PUBLIC "-//W3C//DTD SVG 1.1//EN"
 "http://www.w3.org/Graphics/SVG/1.1/DTD/svg11.dtd">
<!-- Generated by graphviz version 2.43.0 (0)
 -->
<!-- Title: snakemake_dag Pages: 1 -->
<svg width="607pt" height="492pt"
 viewBox="0.00 0.00 606.50 492.00" xmlns="http://www.w3.org/2000/svg" xmlns:xlink="http://www.w3.org/1999/xlink">
<g id="graph0" class="graph" transform="scale(1 1) rotate(0) translate(4 488)">
<title>snakemake_dag</title>
<polygon fill="white" stroke="transparent" points="-4,4 -4,-488 602.5,-488 602.5,4 -4,4"/>
<!-- 0 -->
<g id="node1" class="node">
<title>0</title>
<path fill="none" stroke="#78d856" stroke-width="2" d="M298.5,-36C298.5,-36 268.5,-36 268.5,-36 262.5,-36 256.5,-30 256.5,-24 256.5,-24 256.5,-12 256.5,-12 256.5,-6 262.5,0 268.5,0 268.5,0 298.5,0 298.5,0 304.5,0 310.5,-6 310.5,-12 310.5,-12 310.5,-24 310.5,-24 310.5,-30 304.5,-36 298.5,-36"/>
<text text-anchor="middle" x="283.5" y="-15.5" font-family="sans" font-size="10.00">all</text>
</g>
<!-- 1 -->
<g id="node2" class="node">
<title>1</title>
<path fill="none" stroke="#56a2d8" stroke-width="2" d="M301,-180C301,-180 266,-180 266,-180 260,-180 254,-174 254,-168 254,-168 254,-156 254,-156 254,-150 260,-144 266,-144 266,-144 301,-144 301,-144 307,-144 313,-150 313,-156 313,-156 313,-168 313,-168 313,-174 307,-180 301,-180"/>
<text text-anchor="middle" x="283.5" y="-159.5" font-family="sans" font-size="10.00">reformat</text>
</g>
<!-- 1&#45;&gt;0 -->
<g id="edge1" class="edge">
<title>1&#45;&gt;0</title>
<path fill="none" stroke="grey" stroke-width="2" d="M254,-158.53C198.45,-153.2 81.72,-138.56 57.5,-108 5.59,-42.51 169.49,-25.08 246.18,-20.55"/>
<polygon fill="grey" stroke="grey" stroke-width="2" points="246.59,-24.03 256.39,-19.99 246.21,-17.04 246.59,-24.03"/>
</g>
<!-- 11 -->
<g id="node12" class="node">
<title>11</title>
<path fill="none" stroke="#d85656" stroke-width="2" d="M152,-108C152,-108 79,-108 79,-108 73,-108 67,-102 67,-96 67,-96 67,-84 67,-84 67,-78 73,-72 79,-72 79,-72 152,-72 152,-72 158,-72 164,-78 164,-84 164,-84 164,-96 164,-96 164,-102 158,-108 152,-108"/>
<text text-anchor="middle" x="115.5" y="-93" font-family="sans" font-size="10.00">plot</text>
<text text-anchor="middle" x="115.5" y="-82" font-family="sans" font-size="10.00">variable: rainfall</text>
</g>
<!-- 1&#45;&gt;11 -->
<g id="edge21" class="edge">
<title>1&#45;&gt;11</title>
<path fill="none" stroke="grey" stroke-width="2" d="M253.85,-148.65C229.56,-138.53 194.65,-123.98 165.97,-112.03"/>
<polygon fill="grey" stroke="grey" stroke-width="2" points="167.09,-108.7 156.51,-108.09 164.39,-115.16 167.09,-108.7"/>
</g>
<!-- 12 -->
<g id="node13" class="node">
<title>12</title>
<path fill="none" stroke="#d85656" stroke-width="2" d="M253,-108C253,-108 194,-108 194,-108 188,-108 182,-102 182,-96 182,-96 182,-84 182,-84 182,-78 188,-72 194,-72 194,-72 253,-72 253,-72 259,-72 265,-78 265,-84 265,-84 265,-96 265,-96 265,-102 259,-108 253,-108"/>
<text text-anchor="middle" x="223.5" y="-93" font-family="sans" font-size="10.00">plot</text>
<text text-anchor="middle" x="223.5" y="-82" font-family="sans" font-size="10.00">variable: snet</text>
</g>
<!-- 1&#45;&gt;12 -->
<g id="edge22" class="edge">
<title>1&#45;&gt;12</title>
<path fill="none" stroke="grey" stroke-width="2" d="M268.67,-143.7C261.48,-135.3 252.7,-125.07 244.81,-115.86"/>
<polygon fill="grey" stroke="grey" stroke-width="2" points="247.33,-113.42 238.16,-108.1 242.01,-117.97 247.33,-113.42"/>
</g>
<!-- 13 -->
<g id="node14" class="node">
<title>13</title>
<path fill="none" stroke="#d85656" stroke-width="2" d="M394,-108C394,-108 295,-108 295,-108 289,-108 283,-102 283,-96 283,-96 283,-84 283,-84 283,-78 289,-72 295,-72 295,-72 394,-72 394,-72 400,-72 406,-78 406,-84 406,-84 406,-96 406,-96 406,-102 400,-108 394,-108"/>
<text text-anchor="middle" x="344.5" y="-93" font-family="sans" font-size="10.00">plot</text>
<text text-anchor="middle" x="344.5" y="-82" font-family="sans" font-size="10.00">variable: temperature</text>
</g>
<!-- 1&#45;&gt;13 -->
<g id="edge23" class="edge">
<title>1&#45;&gt;13</title>
<path fill="none" stroke="grey" stroke-width="2" d="M298.58,-143.7C305.89,-135.3 314.81,-125.07 322.84,-115.86"/>
<polygon fill="grey" stroke="grey" stroke-width="2" points="325.66,-117.94 329.59,-108.1 320.39,-113.34 325.66,-117.94"/>
</g>
<!-- 14 -->
<g id="node15" class="node">
<title>14</title>
<path fill="none" stroke="#d85656" stroke-width="2" d="M492.5,-108C492.5,-108 436.5,-108 436.5,-108 430.5,-108 424.5,-102 424.5,-96 424.5,-96 424.5,-84 424.5,-84 424.5,-78 430.5,-72 436.5,-72 436.5,-72 492.5,-72 492.5,-72 498.5,-72 504.5,-78 504.5,-84 504.5,-84 504.5,-96 504.5,-96 504.5,-102 498.5,-108 492.5,-108"/>
<text text-anchor="middle" x="464.5" y="-93" font-family="sans" font-size="10.00">plot</text>
<text text-anchor="middle" x="464.5" y="-82" font-family="sans" font-size="10.00">variable: vpd</text>
</g>
<!-- 1&#45;&gt;14 -->
<g id="edge24" class="edge">
<title>1&#45;&gt;14</title>
<path fill="none" stroke="grey" stroke-width="2" d="M313.39,-149.44C340.99,-138.77 382.5,-122.71 415.04,-110.13"/>
<polygon fill="grey" stroke="grey" stroke-width="2" points="416.33,-113.38 424.39,-106.51 413.8,-106.85 416.33,-113.38"/>
</g>
<!-- 15 -->
<g id="node16" class="node">
<title>15</title>
<path fill="none" stroke="#d85656" stroke-width="2" d="M586.5,-108C586.5,-108 534.5,-108 534.5,-108 528.5,-108 522.5,-102 522.5,-96 522.5,-96 522.5,-84 522.5,-84 522.5,-78 528.5,-72 534.5,-72 534.5,-72 586.5,-72 586.5,-72 592.5,-72 598.5,-78 598.5,-84 598.5,-84 598.5,-96 598.5,-96 598.5,-102 592.5,-108 586.5,-108"/>
<text text-anchor="middle" x="560.5" y="-93" font-family="sans" font-size="10.00">plot</text>
<text text-anchor="middle" x="560.5" y="-82" font-family="sans" font-size="10.00">variable: ws</text>
</g>
<!-- 1&#45;&gt;15 -->
<g id="edge25" class="edge">
<title>1&#45;&gt;15</title>
<path fill="none" stroke="grey" stroke-width="2" d="M313.2,-155.35C355.5,-147.04 435.63,-130.36 512.56,-108.1"/>
<polygon fill="grey" stroke="grey" stroke-width="2" points="513.8,-111.38 522.41,-105.21 511.83,-104.67 513.8,-111.38"/>
</g>
<!-- 2 -->
<g id="node3" class="node">
<title>2</title>
<path fill="none" stroke="#d8a456" stroke-width="2" d="M308,-252C308,-252 259,-252 259,-252 253,-252 247,-246 247,-240 247,-240 247,-228 247,-228 247,-222 253,-216 259,-216 259,-216 308,-216 308,-216 314,-216 320,-222 320,-228 320,-228 320,-240 320,-240 320,-246 314,-252 308,-252"/>
<text text-anchor="middle" x="283.5" y="-231.5" font-family="sans" font-size="10.00">extrapolate</text>
</g>
<!-- 2&#45;&gt;1 -->
<g id="edge7" class="edge">
<title>2&#45;&gt;1</title>
<path fill="none" stroke="grey" stroke-width="2" d="M283.5,-215.7C283.5,-207.98 283.5,-198.71 283.5,-190.11"/>
<polygon fill="grey" stroke="grey" stroke-width="2" points="287,-190.1 283.5,-180.1 280,-190.1 287,-190.1"/>
</g>
<!-- 3 -->
<g id="node4" class="node">
<title>3</title>
<path fill="none" stroke="#56d87b" stroke-width="2" d="M300.5,-324C300.5,-324 266.5,-324 266.5,-324 260.5,-324 254.5,-318 254.5,-312 254.5,-312 254.5,-300 254.5,-300 254.5,-294 260.5,-288 266.5,-288 266.5,-288 300.5,-288 300.5,-288 306.5,-288 312.5,-294 312.5,-300 312.5,-300 312.5,-312 312.5,-312 312.5,-318 306.5,-324 300.5,-324"/>
<text text-anchor="middle" x="283.5" y="-303.5" font-family="sans" font-size="10.00">join_exp</text>
</g>
<!-- 3&#45;&gt;2 -->
<g id="edge8" class="edge">
<title>3&#45;&gt;2</title>
<path fill="none" stroke="grey" stroke-width="2" d="M283.5,-287.7C283.5,-279.98 283.5,-270.71 283.5,-262.11"/>
<polygon fill="grey" stroke="grey" stroke-width="2" points="287,-262.1 283.5,-252.1 280,-262.1 287,-262.1"/>
</g>
<!-- 4 -->
<g id="node5" class="node">
<title>4</title>
<path fill="none" stroke="#56d8c9" stroke-width="2" d="M71,-396C71,-396 12,-396 12,-396 6,-396 0,-390 0,-384 0,-384 0,-372 0,-372 0,-366 6,-360 12,-360 12,-360 71,-360 71,-360 77,-360 83,-366 83,-372 83,-372 83,-384 83,-384 83,-390 77,-396 71,-396"/>
<text text-anchor="middle" x="41.5" y="-381" font-family="sans" font-size="10.00">extract_var</text>
<text text-anchor="middle" x="41.5" y="-370" font-family="sans" font-size="10.00">variable: hurs</text>
</g>
<!-- 4&#45;&gt;3 -->
<g id="edge9" class="edge">
<title>4&#45;&gt;3</title>
<path fill="none" stroke="grey" stroke-width="2" d="M83.19,-362.91C86.34,-361.91 89.46,-360.93 92.5,-360 144.77,-344.05 205.69,-327.49 244.42,-317.22"/>
<polygon fill="grey" stroke="grey" stroke-width="2" points="245.47,-320.56 254.24,-314.62 243.68,-313.79 245.47,-320.56"/>
</g>
<!-- 5 -->
<g id="node6" class="node">
<title>5</title>
<path fill="none" stroke="#c6d856" stroke-width="2" d="M366,-484C366,-484 201,-484 201,-484 195,-484 189,-478 189,-472 189,-472 189,-444 189,-444 189,-438 195,-432 201,-432 201,-432 366,-432 366,-432 372,-432 378,-438 378,-444 378,-444 378,-472 378,-472 378,-478 372,-484 366,-484"/>
<text text-anchor="middle" x="283.5" y="-472" font-family="sans" font-size="10.00">download</text>
<text text-anchor="middle" x="283.5" y="-461" font-family="sans" font-size="10.00">driving_model: MPI&#45;M&#45;MPI&#45;ESM&#45;MR</text>
<text text-anchor="middle" x="283.5" y="-450" font-family="sans" font-size="10.00">experiment: rcp85</text>
<text text-anchor="middle" x="283.5" y="-439" font-family="sans" font-size="10.00">rcm_model: ICTP&#45;RegCM4&#45;7</text>
</g>
<!-- 5&#45;&gt;4 -->
<g id="edge15" class="edge">
<title>5&#45;&gt;4</title>
<path fill="none" stroke="grey" stroke-width="2" d="M204.44,-432C172.44,-421.82 134.94,-409.81 92.86,-396.1"/>
<polygon fill="grey" stroke="grey" stroke-width="2" points="93.83,-392.73 83.23,-392.96 91.66,-399.39 93.83,-392.73"/>
</g>
<!-- 6 -->
<g id="node7" class="node">
<title>6</title>
<path fill="none" stroke="#56d8c9" stroke-width="2" d="M161.5,-396C161.5,-396 113.5,-396 113.5,-396 107.5,-396 101.5,-390 101.5,-384 101.5,-384 101.5,-372 101.5,-372 101.5,-366 107.5,-360 113.5,-360 113.5,-360 161.5,-360 161.5,-360 167.5,-360 173.5,-366 173.5,-372 173.5,-372 173.5,-384 173.5,-384 173.5,-390 167.5,-396 161.5,-396"/>
<text text-anchor="middle" x="137.5" y="-381" font-family="sans" font-size="10.00">extract_var</text>
<text text-anchor="middle" x="137.5" y="-370" font-family="sans" font-size="10.00">variable: pr</text>
</g>
<!-- 5&#45;&gt;6 -->
<g id="edge16" class="edge">
<title>5&#45;&gt;6</title>
<path fill="none" stroke="grey" stroke-width="2" d="M236.5,-431.89C217.9,-421.95 196.71,-410.63 178.72,-401.02"/>
<polygon fill="grey" stroke="grey" stroke-width="2" points="180.11,-397.8 169.64,-396.17 176.81,-403.97 180.11,-397.8"/>
</g>
<!-- 7 -->
<g id="node8" class="node">
<title>7</title>
<path fill="none" stroke="#56d8c9" stroke-width="2" d="M263,-396C263,-396 204,-396 204,-396 198,-396 192,-390 192,-384 192,-384 192,-372 192,-372 192,-366 198,-360 204,-360 204,-360 263,-360 263,-360 269,-360 275,-366 275,-372 275,-372 275,-384 275,-384 275,-390 269,-396 263,-396"/>
<text text-anchor="middle" x="233.5" y="-381" font-family="sans" font-size="10.00">extract_var</text>
<text text-anchor="middle" x="233.5" y="-370" font-family="sans" font-size="10.00">variable: rsds</text>
</g>
<!-- 5&#45;&gt;7 -->
<g id="edge17" class="edge">
<title>5&#45;&gt;7</title>
<path fill="none" stroke="grey" stroke-width="2" d="M267.4,-431.89C261.9,-423.3 255.72,-413.67 250.17,-405.01"/>
<polygon fill="grey" stroke="grey" stroke-width="2" points="253,-402.94 244.66,-396.41 247.11,-406.72 253,-402.94"/>
</g>
<!-- 8 -->
<g id="node9" class="node">
<title>8</title>
<path fill="none" stroke="#56d8c9" stroke-width="2" d="M364,-396C364,-396 305,-396 305,-396 299,-396 293,-390 293,-384 293,-384 293,-372 293,-372 293,-366 299,-360 305,-360 305,-360 364,-360 364,-360 370,-360 376,-366 376,-372 376,-372 376,-384 376,-384 376,-390 370,-396 364,-396"/>
<text text-anchor="middle" x="334.5" y="-381" font-family="sans" font-size="10.00">extract_var</text>
<text text-anchor="middle" x="334.5" y="-370" font-family="sans" font-size="10.00">variable: rsus</text>
</g>
<!-- 5&#45;&gt;8 -->
<g id="edge18" class="edge">
<title>5&#45;&gt;8</title>
<path fill="none" stroke="grey" stroke-width="2" d="M299.92,-431.89C305.54,-423.3 311.83,-413.67 317.5,-405.01"/>
<polygon fill="grey" stroke="grey" stroke-width="2" points="320.57,-406.7 323.12,-396.41 314.71,-402.86 320.57,-406.7"/>
</g>
<!-- 9 -->
<g id="node10" class="node">
<title>9</title>
<path fill="none" stroke="#56d8c9" stroke-width="2" d="M483,-396C483,-396 406,-396 406,-396 400,-396 394,-390 394,-384 394,-384 394,-372 394,-372 394,-366 400,-360 406,-360 406,-360 483,-360 483,-360 489,-360 495,-366 495,-372 495,-372 495,-384 495,-384 495,-390 489,-396 483,-396"/>
<text text-anchor="middle" x="444.5" y="-381" font-family="sans" font-size="10.00">extract_var</text>
<text text-anchor="middle" x="444.5" y="-370" font-family="sans" font-size="10.00">variable: sfcWind</text>
</g>
<!-- 5&#45;&gt;9 -->
<g id="edge19" class="edge">
<title>5&#45;&gt;9</title>
<path fill="none" stroke="grey" stroke-width="2" d="M335.33,-431.89C356.12,-421.82 379.85,-410.32 399.86,-400.63"/>
<polygon fill="grey" stroke="grey" stroke-width="2" points="401.59,-403.68 409.06,-396.17 398.53,-397.38 401.59,-403.68"/>
</g>
<!-- 10 -->
<g id="node11" class="node">
<title>10</title>
<path fill="none" stroke="#56d8c9" stroke-width="2" d="M578,-396C578,-396 525,-396 525,-396 519,-396 513,-390 513,-384 513,-384 513,-372 513,-372 513,-366 519,-360 525,-360 525,-360 578,-360 578,-360 584,-360 590,-366 590,-372 590,-372 590,-384 590,-384 590,-390 584,-396 578,-396"/>
<text text-anchor="middle" x="551.5" y="-381" font-family="sans" font-size="10.00">extract_var</text>
<text text-anchor="middle" x="551.5" y="-370" font-family="sans" font-size="10.00">variable: tas</text>
</g>
<!-- 5&#45;&gt;10 -->
<g id="edge20" class="edge">
<title>5&#45;&gt;10</title>
<path fill="none" stroke="grey" stroke-width="2" d="M378.07,-432.63C414.77,-422.76 457.27,-410.81 503.04,-396.37"/>
<polygon fill="grey" stroke="grey" stroke-width="2" points="504.38,-399.61 512.85,-393.25 502.26,-392.94 504.38,-399.61"/>
</g>
<!-- 6&#45;&gt;3 -->
<g id="edge10" class="edge">
<title>6&#45;&gt;3</title>
<path fill="none" stroke="grey" stroke-width="2" d="M173.22,-359.88C194.93,-349.46 222.67,-336.17 244.89,-325.51"/>
<polygon fill="grey" stroke="grey" stroke-width="2" points="246.54,-328.6 254.04,-321.12 243.51,-322.29 246.54,-328.6"/>
</g>
<!-- 7&#45;&gt;3 -->
<g id="edge11" class="edge">
<title>7&#45;&gt;3</title>
<path fill="none" stroke="grey" stroke-width="2" d="M245.86,-359.7C251.73,-351.47 258.87,-341.48 265.34,-332.42"/>
<polygon fill="grey" stroke="grey" stroke-width="2" points="268.32,-334.28 271.28,-324.1 262.62,-330.21 268.32,-334.28"/>
</g>
<!-- 8&#45;&gt;3 -->
<g id="edge12" class="edge">
<title>8&#45;&gt;3</title>
<path fill="none" stroke="grey" stroke-width="2" d="M321.89,-359.7C315.9,-351.47 308.62,-341.48 302.02,-332.42"/>
<polygon fill="grey" stroke="grey" stroke-width="2" points="304.68,-330.13 295.96,-324.1 299.02,-334.25 304.68,-330.13"/>
</g>
<!-- 9&#45;&gt;3 -->
<g id="edge13" class="edge">
<title>9&#45;&gt;3</title>
<path fill="none" stroke="grey" stroke-width="2" d="M405.11,-359.88C379.77,-348.86 347,-334.61 321.86,-323.68"/>
<polygon fill="grey" stroke="grey" stroke-width="2" points="323.2,-320.44 312.63,-319.67 320.41,-326.86 323.2,-320.44"/>
</g>
<!-- 10&#45;&gt;3 -->
<g id="edge14" class="edge">
<title>10&#45;&gt;3</title>
<path fill="none" stroke="grey" stroke-width="2" d="M512.89,-362.65C510.06,-361.71 507.24,-360.82 504.5,-360 441.56,-341.13 366.99,-324.39 322.55,-314.98"/>
<polygon fill="grey" stroke="grey" stroke-width="2" points="323.24,-311.55 312.74,-312.92 321.8,-318.4 323.24,-311.55"/>
</g>
<!-- 11&#45;&gt;0 -->
<g id="edge2" class="edge">
<title>11&#45;&gt;0</title>
<path fill="none" stroke="grey" stroke-width="2" d="M156.6,-71.88C184.28,-60.34 220.47,-45.26 247.11,-34.16"/>
<polygon fill="grey" stroke="grey" stroke-width="2" points="248.58,-37.34 256.46,-30.27 245.88,-30.88 248.58,-37.34"/>
</g>
<!-- 12&#45;&gt;0 -->
<g id="edge3" class="edge">
<title>12&#45;&gt;0</title>
<path fill="none" stroke="grey" stroke-width="2" d="M238.33,-71.7C245.52,-63.3 254.3,-53.07 262.19,-43.86"/>
<polygon fill="grey" stroke="grey" stroke-width="2" points="264.99,-45.97 268.84,-36.1 259.67,-41.42 264.99,-45.97"/>
</g>
<!-- 13&#45;&gt;0 -->
<g id="edge4" class="edge">
<title>13&#45;&gt;0</title>
<path fill="none" stroke="grey" stroke-width="2" d="M329.42,-71.7C322.11,-63.3 313.19,-53.07 305.16,-43.86"/>
<polygon fill="grey" stroke="grey" stroke-width="2" points="307.61,-41.34 298.41,-36.1 302.34,-45.94 307.61,-41.34"/>
</g>
<!-- 14&#45;&gt;0 -->
<g id="edge5" class="edge">
<title>14&#45;&gt;0</title>
<path fill="none" stroke="grey" stroke-width="2" d="M424.33,-73.46C393.13,-61.4 350.23,-44.81 320,-33.11"/>
<polygon fill="grey" stroke="grey" stroke-width="2" points="321.25,-29.85 310.66,-29.5 318.72,-36.37 321.25,-29.85"/>
</g>
<!-- 15&#45;&gt;0 -->
<g id="edge6" class="edge">
<title>15&#45;&gt;0</title>
<path fill="none" stroke="grey" stroke-width="2" d="M522.41,-74.79C519.41,-73.8 516.41,-72.86 513.5,-72 446.41,-52.21 366.52,-35.25 320.74,-26.14"/>
<polygon fill="grey" stroke="grey" stroke-width="2" points="321.17,-22.66 310.68,-24.16 319.82,-29.53 321.17,-22.66"/>
</g>
</g>
</svg>
