<?xml version="1.0" encoding="UTF-8" standalone="no"?>
<!DOCTYPE svg PUBLIC "-//W3C//DTD SVG 1.1//EN"
 "http://www.w3.org/Graphics/SVG/1.1/DTD/svg11.dtd">
<!-- Generated by graphviz version 2.43.0 (0)
 -->
<!-- Title: snakemake_dag Pages: 1 -->
<svg width="1839pt" height="492pt"
 viewBox="0.00 0.00 1838.50 492.00" xmlns="http://www.w3.org/2000/svg" xmlns:xlink="http://www.w3.org/1999/xlink">
<g id="graph0" class="graph" transform="scale(1 1) rotate(0) translate(4 488)">
<title>snakemake_dag</title>
<polygon fill="white" stroke="transparent" points="-4,4 -4,-488 1834.5,-488 1834.5,4 -4,4"/>
<!-- 0 -->
<g id="node1" class="node">
<title>0</title>
<path fill="none" stroke="#56d87b" stroke-width="2" d="M942.5,-36C942.5,-36 912.5,-36 912.5,-36 906.5,-36 900.5,-30 900.5,-24 900.5,-24 900.5,-12 900.5,-12 900.5,-6 906.5,0 912.5,0 912.5,0 942.5,0 942.5,0 948.5,0 954.5,-6 954.5,-12 954.5,-12 954.5,-24 954.5,-24 954.5,-30 948.5,-36 942.5,-36"/>
<text text-anchor="middle" x="927.5" y="-15.5" font-family="sans" font-size="10.00">all</text>
</g>
<!-- 1 -->
<g id="node2" class="node">
<title>1</title>
<path fill="none" stroke="#d85656" stroke-width="2" d="M327,-180C327,-180 292,-180 292,-180 286,-180 280,-174 280,-168 280,-168 280,-156 280,-156 280,-150 286,-144 292,-144 292,-144 327,-144 327,-144 333,-144 339,-150 339,-156 339,-156 339,-168 339,-168 339,-174 333,-180 327,-180"/>
<text text-anchor="middle" x="309.5" y="-159.5" font-family="sans" font-size="10.00">reformat</text>
</g>
<!-- 1&#45;&gt;0 -->
<g id="edge1" class="edge">
<title>1&#45;&gt;0</title>
<path fill="none" stroke="grey" stroke-width="2" d="M279.63,-158.09C213.01,-150.54 62.01,-126.95 113.5,-72 140.39,-43.3 733.56,-24.5 889.97,-20.03"/>
<polygon fill="grey" stroke="grey" stroke-width="2" points="890.15,-23.53 900.05,-19.74 889.95,-16.53 890.15,-23.53"/>
</g>
<!-- 31 -->
<g id="node32" class="node">
<title>31</title>
<path fill="none" stroke="#d8a456" stroke-width="2" d="M208,-108C208,-108 135,-108 135,-108 129,-108 123,-102 123,-96 123,-96 123,-84 123,-84 123,-78 129,-72 135,-72 135,-72 208,-72 208,-72 214,-72 220,-78 220,-84 220,-84 220,-96 220,-96 220,-102 214,-108 208,-108"/>
<text text-anchor="middle" x="171.5" y="-93" font-family="sans" font-size="10.00">plot</text>
<text text-anchor="middle" x="171.5" y="-82" font-family="sans" font-size="10.00">variable: rainfall</text>
</g>
<!-- 1&#45;&gt;31 -->
<g id="edge61" class="edge">
<title>1&#45;&gt;31</title>
<path fill="none" stroke="grey" stroke-width="2" d="M279.9,-145.98C260.85,-136.32 235.79,-123.61 214.57,-112.85"/>
<polygon fill="grey" stroke="grey" stroke-width="2" points="215.93,-109.61 205.43,-108.21 212.76,-115.85 215.93,-109.61"/>
</g>
<!-- 32 -->
<g id="node33" class="node">
<title>32</title>
<path fill="none" stroke="#d8a456" stroke-width="2" d="M309,-108C309,-108 250,-108 250,-108 244,-108 238,-102 238,-96 238,-96 238,-84 238,-84 238,-78 244,-72 250,-72 250,-72 309,-72 309,-72 315,-72 321,-78 321,-84 321,-84 321,-96 321,-96 321,-102 315,-108 309,-108"/>
<text text-anchor="middle" x="279.5" y="-93" font-family="sans" font-size="10.00">plot</text>
<text text-anchor="middle" x="279.5" y="-82" font-family="sans" font-size="10.00">variable: snet</text>
</g>
<!-- 1&#45;&gt;32 -->
<g id="edge62" class="edge">
<title>1&#45;&gt;32</title>
<path fill="none" stroke="grey" stroke-width="2" d="M302.08,-143.7C298.71,-135.81 294.63,-126.3 290.88,-117.55"/>
<polygon fill="grey" stroke="grey" stroke-width="2" points="293.99,-115.92 286.83,-108.1 287.55,-118.67 293.99,-115.92"/>
</g>
<!-- 33 -->
<g id="node34" class="node">
<title>33</title>
<path fill="none" stroke="#d8a456" stroke-width="2" d="M450,-108C450,-108 351,-108 351,-108 345,-108 339,-102 339,-96 339,-96 339,-84 339,-84 339,-78 345,-72 351,-72 351,-72 450,-72 450,-72 456,-72 462,-78 462,-84 462,-84 462,-96 462,-96 462,-102 456,-108 450,-108"/>
<text text-anchor="middle" x="400.5" y="-93" font-family="sans" font-size="10.00">plot</text>
<text text-anchor="middle" x="400.5" y="-82" font-family="sans" font-size="10.00">variable: temperature</text>
</g>
<!-- 1&#45;&gt;33 -->
<g id="edge63" class="edge">
<title>1&#45;&gt;33</title>
<path fill="none" stroke="grey" stroke-width="2" d="M331.99,-143.7C343.46,-134.88 357.56,-124.03 369.98,-114.47"/>
<polygon fill="grey" stroke="grey" stroke-width="2" points="372.47,-116.98 378.26,-108.1 368.2,-111.43 372.47,-116.98"/>
</g>
<!-- 34 -->
<g id="node35" class="node">
<title>34</title>
<path fill="none" stroke="#d8a456" stroke-width="2" d="M548.5,-108C548.5,-108 492.5,-108 492.5,-108 486.5,-108 480.5,-102 480.5,-96 480.5,-96 480.5,-84 480.5,-84 480.5,-78 486.5,-72 492.5,-72 492.5,-72 548.5,-72 548.5,-72 554.5,-72 560.5,-78 560.5,-84 560.5,-84 560.5,-96 560.5,-96 560.5,-102 554.5,-108 548.5,-108"/>
<text text-anchor="middle" x="520.5" y="-93" font-family="sans" font-size="10.00">plot</text>
<text text-anchor="middle" x="520.5" y="-82" font-family="sans" font-size="10.00">variable: vpd</text>
</g>
<!-- 1&#45;&gt;34 -->
<g id="edge64" class="edge">
<title>1&#45;&gt;34</title>
<path fill="none" stroke="grey" stroke-width="2" d="M339.2,-151.32C371.53,-140.76 424.73,-123.31 470.5,-108 470.6,-107.97 470.7,-107.93 470.8,-107.9"/>
<polygon fill="grey" stroke="grey" stroke-width="2" points="472.03,-111.18 480.39,-104.67 469.8,-104.54 472.03,-111.18"/>
</g>
<!-- 35 -->
<g id="node36" class="node">
<title>35</title>
<path fill="none" stroke="#d8a456" stroke-width="2" d="M642.5,-108C642.5,-108 590.5,-108 590.5,-108 584.5,-108 578.5,-102 578.5,-96 578.5,-96 578.5,-84 578.5,-84 578.5,-78 584.5,-72 590.5,-72 590.5,-72 642.5,-72 642.5,-72 648.5,-72 654.5,-78 654.5,-84 654.5,-84 654.5,-96 654.5,-96 654.5,-102 648.5,-108 642.5,-108"/>
<text text-anchor="middle" x="616.5" y="-93" font-family="sans" font-size="10.00">plot</text>
<text text-anchor="middle" x="616.5" y="-82" font-family="sans" font-size="10.00">variable: ws</text>
</g>
<!-- 1&#45;&gt;35 -->
<g id="edge65" class="edge">
<title>1&#45;&gt;35</title>
<path fill="none" stroke="grey" stroke-width="2" d="M339.08,-156.42C385.97,-148.84 480.3,-132.34 568.79,-107.99"/>
<polygon fill="grey" stroke="grey" stroke-width="2" points="569.74,-111.36 578.43,-105.3 567.86,-104.61 569.74,-111.36"/>
</g>
<!-- 2 -->
<g id="node3" class="node">
<title>2</title>
<path fill="none" stroke="#c6d856" stroke-width="2" d="M334,-252C334,-252 285,-252 285,-252 279,-252 273,-246 273,-240 273,-240 273,-228 273,-228 273,-222 279,-216 285,-216 285,-216 334,-216 334,-216 340,-216 346,-222 346,-228 346,-228 346,-240 346,-240 346,-246 340,-252 334,-252"/>
<text text-anchor="middle" x="309.5" y="-231.5" font-family="sans" font-size="10.00">extrapolate</text>
</g>
<!-- 2&#45;&gt;1 -->
<g id="edge19" class="edge">
<title>2&#45;&gt;1</title>
<path fill="none" stroke="grey" stroke-width="2" d="M309.5,-215.7C309.5,-207.98 309.5,-198.71 309.5,-190.11"/>
<polygon fill="grey" stroke="grey" stroke-width="2" points="313,-190.1 309.5,-180.1 306,-190.1 313,-190.1"/>
</g>
<!-- 3 -->
<g id="node4" class="node">
<title>3</title>
<path fill="none" stroke="#56a2d8" stroke-width="2" d="M326.5,-324C326.5,-324 292.5,-324 292.5,-324 286.5,-324 280.5,-318 280.5,-312 280.5,-312 280.5,-300 280.5,-300 280.5,-294 286.5,-288 292.5,-288 292.5,-288 326.5,-288 326.5,-288 332.5,-288 338.5,-294 338.5,-300 338.5,-300 338.5,-312 338.5,-312 338.5,-318 332.5,-324 326.5,-324"/>
<text text-anchor="middle" x="309.5" y="-303.5" font-family="sans" font-size="10.00">join_exp</text>
</g>
<!-- 3&#45;&gt;2 -->
<g id="edge20" class="edge">
<title>3&#45;&gt;2</title>
<path fill="none" stroke="grey" stroke-width="2" d="M309.5,-287.7C309.5,-279.98 309.5,-270.71 309.5,-262.11"/>
<polygon fill="grey" stroke="grey" stroke-width="2" points="313,-262.1 309.5,-252.1 306,-262.1 313,-262.1"/>
</g>
<!-- 4 -->
<g id="node5" class="node">
<title>4</title>
<path fill="none" stroke="#78d856" stroke-width="2" d="M71,-396C71,-396 12,-396 12,-396 6,-396 0,-390 0,-384 0,-384 0,-372 0,-372 0,-366 6,-360 12,-360 12,-360 71,-360 71,-360 77,-360 83,-366 83,-372 83,-372 83,-384 83,-384 83,-390 77,-396 71,-396"/>
<text text-anchor="middle" x="41.5" y="-381" font-family="sans" font-size="10.00">extract_var</text>
<text text-anchor="middle" x="41.5" y="-370" font-family="sans" font-size="10.00">variable: hurs</text>
</g>
<!-- 4&#45;&gt;3 -->
<g id="edge21" class="edge">
<title>4&#45;&gt;3</title>
<path fill="none" stroke="grey" stroke-width="2" d="M83.16,-362.8C86.31,-361.82 89.45,-360.88 92.5,-360 154.08,-342.25 226.58,-325.33 270.24,-315.57"/>
<polygon fill="grey" stroke="grey" stroke-width="2" points="271.16,-318.95 280.17,-313.36 269.65,-312.11 271.16,-318.95"/>
</g>
<!-- 5 -->
<g id="node6" class="node">
<title>5</title>
<path fill="none" stroke="#56d8c9" stroke-width="2" d="M357.5,-484C357.5,-484 211.5,-484 211.5,-484 205.5,-484 199.5,-478 199.5,-472 199.5,-472 199.5,-444 199.5,-444 199.5,-438 205.5,-432 211.5,-432 211.5,-432 357.5,-432 357.5,-432 363.5,-432 369.5,-438 369.5,-444 369.5,-444 369.5,-472 369.5,-472 369.5,-478 363.5,-484 357.5,-484"/>
<text text-anchor="middle" x="284.5" y="-472" font-family="sans" font-size="10.00">download</text>
<text text-anchor="middle" x="284.5" y="-461" font-family="sans" font-size="10.00">driving_model: MPI&#45;M&#45;MPI&#45;ESM</text>
<text text-anchor="middle" x="284.5" y="-450" font-family="sans" font-size="10.00">experiment: historical</text>
<text text-anchor="middle" x="284.5" y="-439" font-family="sans" font-size="10.00">rcm_model: ICTP&#45;RegCM4&#45;7</text>
</g>
<!-- 5&#45;&gt;4 -->
<g id="edge27" class="edge">
<title>5&#45;&gt;4</title>
<path fill="none" stroke="grey" stroke-width="2" d="M204.55,-431.88C172.47,-421.73 134.96,-409.78 92.86,-396.1"/>
<polygon fill="grey" stroke="grey" stroke-width="2" points="93.82,-392.73 83.23,-392.96 91.66,-399.39 93.82,-392.73"/>
</g>
<!-- 6 -->
<g id="node7" class="node">
<title>6</title>
<path fill="none" stroke="#78d856" stroke-width="2" d="M161.5,-396C161.5,-396 113.5,-396 113.5,-396 107.5,-396 101.5,-390 101.5,-384 101.5,-384 101.5,-372 101.5,-372 101.5,-366 107.5,-360 113.5,-360 113.5,-360 161.5,-360 161.5,-360 167.5,-360 173.5,-366 173.5,-372 173.5,-372 173.5,-384 173.5,-384 173.5,-390 167.5,-396 161.5,-396"/>
<text text-anchor="middle" x="137.5" y="-381" font-family="sans" font-size="10.00">extract_var</text>
<text text-anchor="middle" x="137.5" y="-370" font-family="sans" font-size="10.00">variable: pr</text>
</g>
<!-- 5&#45;&gt;6 -->
<g id="edge28" class="edge">
<title>5&#45;&gt;6</title>
<path fill="none" stroke="grey" stroke-width="2" d="M237.18,-431.89C218.45,-421.95 197.12,-410.63 179.01,-401.02"/>
<polygon fill="grey" stroke="grey" stroke-width="2" points="180.33,-397.77 169.86,-396.17 177.05,-403.95 180.33,-397.77"/>
</g>
<!-- 7 -->
<g id="node8" class="node">
<title>7</title>
<path fill="none" stroke="#78d856" stroke-width="2" d="M263,-396C263,-396 204,-396 204,-396 198,-396 192,-390 192,-384 192,-384 192,-372 192,-372 192,-366 198,-360 204,-360 204,-360 263,-360 263,-360 269,-360 275,-366 275,-372 275,-372 275,-384 275,-384 275,-390 269,-396 263,-396"/>
<text text-anchor="middle" x="233.5" y="-381" font-family="sans" font-size="10.00">extract_var</text>
<text text-anchor="middle" x="233.5" y="-370" font-family="sans" font-size="10.00">variable: rsds</text>
</g>
<!-- 5&#45;&gt;7 -->
<g id="edge29" class="edge">
<title>5&#45;&gt;7</title>
<path fill="none" stroke="grey" stroke-width="2" d="M268.08,-431.89C262.46,-423.3 256.17,-413.67 250.5,-405.01"/>
<polygon fill="grey" stroke="grey" stroke-width="2" points="253.29,-402.86 244.88,-396.41 247.43,-406.7 253.29,-402.86"/>
</g>
<!-- 8 -->
<g id="node9" class="node">
<title>8</title>
<path fill="none" stroke="#78d856" stroke-width="2" d="M364,-396C364,-396 305,-396 305,-396 299,-396 293,-390 293,-384 293,-384 293,-372 293,-372 293,-366 299,-360 305,-360 305,-360 364,-360 364,-360 370,-360 376,-366 376,-372 376,-372 376,-384 376,-384 376,-390 370,-396 364,-396"/>
<text text-anchor="middle" x="334.5" y="-381" font-family="sans" font-size="10.00">extract_var</text>
<text text-anchor="middle" x="334.5" y="-370" font-family="sans" font-size="10.00">variable: rsus</text>
</g>
<!-- 5&#45;&gt;8 -->
<g id="edge30" class="edge">
<title>5&#45;&gt;8</title>
<path fill="none" stroke="grey" stroke-width="2" d="M300.6,-431.89C306.1,-423.3 312.28,-413.67 317.83,-405.01"/>
<polygon fill="grey" stroke="grey" stroke-width="2" points="320.89,-406.72 323.34,-396.41 315,-402.94 320.89,-406.72"/>
</g>
<!-- 9 -->
<g id="node10" class="node">
<title>9</title>
<path fill="none" stroke="#78d856" stroke-width="2" d="M483,-396C483,-396 406,-396 406,-396 400,-396 394,-390 394,-384 394,-384 394,-372 394,-372 394,-366 400,-360 406,-360 406,-360 483,-360 483,-360 489,-360 495,-366 495,-372 495,-372 495,-384 495,-384 495,-390 489,-396 483,-396"/>
<text text-anchor="middle" x="444.5" y="-381" font-family="sans" font-size="10.00">extract_var</text>
<text text-anchor="middle" x="444.5" y="-370" font-family="sans" font-size="10.00">variable: sfcWind</text>
</g>
<!-- 5&#45;&gt;9 -->
<g id="edge31" class="edge">
<title>5&#45;&gt;9</title>
<path fill="none" stroke="grey" stroke-width="2" d="M336.01,-431.89C356.67,-421.82 380.25,-410.32 400.13,-400.63"/>
<polygon fill="grey" stroke="grey" stroke-width="2" points="401.82,-403.7 409.28,-396.17 398.76,-397.41 401.82,-403.7"/>
</g>
<!-- 10 -->
<g id="node11" class="node">
<title>10</title>
<path fill="none" stroke="#78d856" stroke-width="2" d="M578,-396C578,-396 525,-396 525,-396 519,-396 513,-390 513,-384 513,-384 513,-372 513,-372 513,-366 519,-360 525,-360 525,-360 578,-360 578,-360 584,-360 590,-366 590,-372 590,-372 590,-384 590,-384 590,-390 584,-396 578,-396"/>
<text text-anchor="middle" x="551.5" y="-381" font-family="sans" font-size="10.00">extract_var</text>
<text text-anchor="middle" x="551.5" y="-370" font-family="sans" font-size="10.00">variable: tas</text>
</g>
<!-- 5&#45;&gt;10 -->
<g id="edge32" class="edge">
<title>5&#45;&gt;10</title>
<path fill="none" stroke="grey" stroke-width="2" d="M369.66,-434.74C407.9,-424.4 453.72,-411.52 503.19,-396"/>
<polygon fill="grey" stroke="grey" stroke-width="2" points="504.32,-399.31 512.8,-392.96 502.21,-392.64 504.32,-399.31"/>
</g>
<!-- 6&#45;&gt;3 -->
<g id="edge22" class="edge">
<title>6&#45;&gt;3</title>
<path fill="none" stroke="grey" stroke-width="2" d="M173.56,-362.33C202.05,-350.73 241.75,-334.57 270.89,-322.71"/>
<polygon fill="grey" stroke="grey" stroke-width="2" points="272.39,-325.88 280.34,-318.87 269.75,-319.4 272.39,-325.88"/>
</g>
<!-- 7&#45;&gt;3 -->
<g id="edge23" class="edge">
<title>7&#45;&gt;3</title>
<path fill="none" stroke="grey" stroke-width="2" d="M252.29,-359.7C261.67,-351.05 273.18,-340.45 283.41,-331.03"/>
<polygon fill="grey" stroke="grey" stroke-width="2" points="285.95,-333.45 290.93,-324.1 281.2,-328.3 285.95,-333.45"/>
</g>
<!-- 8&#45;&gt;3 -->
<g id="edge24" class="edge">
<title>8&#45;&gt;3</title>
<path fill="none" stroke="grey" stroke-width="2" d="M328.32,-359.7C325.5,-351.81 322.11,-342.3 318.98,-333.55"/>
<polygon fill="grey" stroke="grey" stroke-width="2" points="322.27,-332.34 315.61,-324.1 315.68,-334.7 322.27,-332.34"/>
</g>
<!-- 9&#45;&gt;3 -->
<g id="edge25" class="edge">
<title>9&#45;&gt;3</title>
<path fill="none" stroke="grey" stroke-width="2" d="M411.48,-359.88C392.12,-349.84 367.58,-337.12 347.43,-326.67"/>
<polygon fill="grey" stroke="grey" stroke-width="2" points="349.01,-323.54 338.52,-322.05 345.78,-329.76 349.01,-323.54"/>
</g>
<!-- 10&#45;&gt;3 -->
<g id="edge26" class="edge">
<title>10&#45;&gt;3</title>
<path fill="none" stroke="grey" stroke-width="2" d="M512.81,-363.02C509.67,-361.97 506.54,-360.95 503.5,-360 450.17,-343.3 387.68,-326.76 348.34,-316.71"/>
<polygon fill="grey" stroke="grey" stroke-width="2" points="349.17,-313.31 338.62,-314.24 347.45,-320.1 349.17,-313.31"/>
</g>
<!-- 11 -->
<g id="node12" class="node">
<title>11</title>
<path fill="none" stroke="#d85656" stroke-width="2" d="M939,-180C939,-180 904,-180 904,-180 898,-180 892,-174 892,-168 892,-168 892,-156 892,-156 892,-150 898,-144 904,-144 904,-144 939,-144 939,-144 945,-144 951,-150 951,-156 951,-156 951,-168 951,-168 951,-174 945,-180 939,-180"/>
<text text-anchor="middle" x="921.5" y="-159.5" font-family="sans" font-size="10.00">reformat</text>
</g>
<!-- 11&#45;&gt;0 -->
<g id="edge2" class="edge">
<title>11&#45;&gt;0</title>
<path fill="none" stroke="grey" stroke-width="2" d="M891.76,-159.64C820.41,-155.32 649.23,-137.95 701.5,-72 724.6,-42.86 831.81,-28.19 889.88,-22.27"/>
<polygon fill="grey" stroke="grey" stroke-width="2" points="890.51,-25.73 900.12,-21.27 889.82,-18.76 890.51,-25.73"/>
</g>
<!-- 36 -->
<g id="node37" class="node">
<title>36</title>
<path fill="none" stroke="#d8a456" stroke-width="2" d="M796,-108C796,-108 723,-108 723,-108 717,-108 711,-102 711,-96 711,-96 711,-84 711,-84 711,-78 717,-72 723,-72 723,-72 796,-72 796,-72 802,-72 808,-78 808,-84 808,-84 808,-96 808,-96 808,-102 802,-108 796,-108"/>
<text text-anchor="middle" x="759.5" y="-93" font-family="sans" font-size="10.00">plot</text>
<text text-anchor="middle" x="759.5" y="-82" font-family="sans" font-size="10.00">variable: rainfall</text>
</g>
<!-- 11&#45;&gt;36 -->
<g id="edge66" class="edge">
<title>11&#45;&gt;36</title>
<path fill="none" stroke="grey" stroke-width="2" d="M891.79,-148.16C868.5,-138.1 835.6,-123.88 808.44,-112.15"/>
<polygon fill="grey" stroke="grey" stroke-width="2" points="809.67,-108.87 799.1,-108.11 806.89,-115.29 809.67,-108.87"/>
</g>
<!-- 37 -->
<g id="node38" class="node">
<title>37</title>
<path fill="none" stroke="#d8a456" stroke-width="2" d="M897,-108C897,-108 838,-108 838,-108 832,-108 826,-102 826,-96 826,-96 826,-84 826,-84 826,-78 832,-72 838,-72 838,-72 897,-72 897,-72 903,-72 909,-78 909,-84 909,-84 909,-96 909,-96 909,-102 903,-108 897,-108"/>
<text text-anchor="middle" x="867.5" y="-93" font-family="sans" font-size="10.00">plot</text>
<text text-anchor="middle" x="867.5" y="-82" font-family="sans" font-size="10.00">variable: snet</text>
</g>
<!-- 11&#45;&gt;37 -->
<g id="edge67" class="edge">
<title>11&#45;&gt;37</title>
<path fill="none" stroke="grey" stroke-width="2" d="M908.15,-143.7C901.74,-135.39 893.94,-125.28 886.89,-116.14"/>
<polygon fill="grey" stroke="grey" stroke-width="2" points="889.57,-113.88 880.69,-108.1 884.03,-118.16 889.57,-113.88"/>
</g>
<!-- 38 -->
<g id="node39" class="node">
<title>38</title>
<path fill="none" stroke="#d8a456" stroke-width="2" d="M1038,-108C1038,-108 939,-108 939,-108 933,-108 927,-102 927,-96 927,-96 927,-84 927,-84 927,-78 933,-72 939,-72 939,-72 1038,-72 1038,-72 1044,-72 1050,-78 1050,-84 1050,-84 1050,-96 1050,-96 1050,-102 1044,-108 1038,-108"/>
<text text-anchor="middle" x="988.5" y="-93" font-family="sans" font-size="10.00">plot</text>
<text text-anchor="middle" x="988.5" y="-82" font-family="sans" font-size="10.00">variable: temperature</text>
</g>
<!-- 11&#45;&gt;38 -->
<g id="edge68" class="edge">
<title>11&#45;&gt;38</title>
<path fill="none" stroke="grey" stroke-width="2" d="M938.06,-143.7C946.18,-135.22 956.09,-124.86 964.97,-115.58"/>
<polygon fill="grey" stroke="grey" stroke-width="2" points="967.74,-117.75 972.13,-108.1 962.69,-112.91 967.74,-117.75"/>
</g>
<!-- 39 -->
<g id="node40" class="node">
<title>39</title>
<path fill="none" stroke="#d8a456" stroke-width="2" d="M1136.5,-108C1136.5,-108 1080.5,-108 1080.5,-108 1074.5,-108 1068.5,-102 1068.5,-96 1068.5,-96 1068.5,-84 1068.5,-84 1068.5,-78 1074.5,-72 1080.5,-72 1080.5,-72 1136.5,-72 1136.5,-72 1142.5,-72 1148.5,-78 1148.5,-84 1148.5,-84 1148.5,-96 1148.5,-96 1148.5,-102 1142.5,-108 1136.5,-108"/>
<text text-anchor="middle" x="1108.5" y="-93" font-family="sans" font-size="10.00">plot</text>
<text text-anchor="middle" x="1108.5" y="-82" font-family="sans" font-size="10.00">variable: vpd</text>
</g>
<!-- 11&#45;&gt;39 -->
<g id="edge69" class="edge">
<title>11&#45;&gt;39</title>
<path fill="none" stroke="grey" stroke-width="2" d="M951.13,-149.91C980.03,-139.09 1024.52,-122.43 1058.84,-109.59"/>
<polygon fill="grey" stroke="grey" stroke-width="2" points="1060.08,-112.86 1068.22,-106.08 1057.63,-106.3 1060.08,-112.86"/>
</g>
<!-- 40 -->
<g id="node41" class="node">
<title>40</title>
<path fill="none" stroke="#d8a456" stroke-width="2" d="M1230.5,-108C1230.5,-108 1178.5,-108 1178.5,-108 1172.5,-108 1166.5,-102 1166.5,-96 1166.5,-96 1166.5,-84 1166.5,-84 1166.5,-78 1172.5,-72 1178.5,-72 1178.5,-72 1230.5,-72 1230.5,-72 1236.5,-72 1242.5,-78 1242.5,-84 1242.5,-84 1242.5,-96 1242.5,-96 1242.5,-102 1236.5,-108 1230.5,-108"/>
<text text-anchor="middle" x="1204.5" y="-93" font-family="sans" font-size="10.00">plot</text>
<text text-anchor="middle" x="1204.5" y="-82" font-family="sans" font-size="10.00">variable: ws</text>
</g>
<!-- 11&#45;&gt;40 -->
<g id="edge70" class="edge">
<title>11&#45;&gt;40</title>
<path fill="none" stroke="grey" stroke-width="2" d="M951.24,-155.57C994.53,-147.4 1077.52,-130.72 1156.77,-108.03"/>
<polygon fill="grey" stroke="grey" stroke-width="2" points="1157.78,-111.38 1166.41,-105.23 1155.83,-104.66 1157.78,-111.38"/>
</g>
<!-- 12 -->
<g id="node13" class="node">
<title>12</title>
<path fill="none" stroke="#c6d856" stroke-width="2" d="M946,-252C946,-252 897,-252 897,-252 891,-252 885,-246 885,-240 885,-240 885,-228 885,-228 885,-222 891,-216 897,-216 897,-216 946,-216 946,-216 952,-216 958,-222 958,-228 958,-228 958,-240 958,-240 958,-246 952,-252 946,-252"/>
<text text-anchor="middle" x="921.5" y="-231.5" font-family="sans" font-size="10.00">extrapolate</text>
</g>
<!-- 12&#45;&gt;11 -->
<g id="edge33" class="edge">
<title>12&#45;&gt;11</title>
<path fill="none" stroke="grey" stroke-width="2" d="M921.5,-215.7C921.5,-207.98 921.5,-198.71 921.5,-190.11"/>
<polygon fill="grey" stroke="grey" stroke-width="2" points="925,-190.1 921.5,-180.1 918,-190.1 925,-190.1"/>
</g>
<!-- 13 -->
<g id="node14" class="node">
<title>13</title>
<path fill="none" stroke="#56a2d8" stroke-width="2" d="M938.5,-324C938.5,-324 904.5,-324 904.5,-324 898.5,-324 892.5,-318 892.5,-312 892.5,-312 892.5,-300 892.5,-300 892.5,-294 898.5,-288 904.5,-288 904.5,-288 938.5,-288 938.5,-288 944.5,-288 950.5,-294 950.5,-300 950.5,-300 950.5,-312 950.5,-312 950.5,-318 944.5,-324 938.5,-324"/>
<text text-anchor="middle" x="921.5" y="-303.5" font-family="sans" font-size="10.00">join_exp</text>
</g>
<!-- 13&#45;&gt;12 -->
<g id="edge34" class="edge">
<title>13&#45;&gt;12</title>
<path fill="none" stroke="grey" stroke-width="2" d="M921.5,-287.7C921.5,-279.98 921.5,-270.71 921.5,-262.11"/>
<polygon fill="grey" stroke="grey" stroke-width="2" points="925,-262.1 921.5,-252.1 918,-262.1 925,-262.1"/>
</g>
<!-- 14 -->
<g id="node15" class="node">
<title>14</title>
<path fill="none" stroke="#78d856" stroke-width="2" d="M694,-396C694,-396 635,-396 635,-396 629,-396 623,-390 623,-384 623,-384 623,-372 623,-372 623,-366 629,-360 635,-360 635,-360 694,-360 694,-360 700,-360 706,-366 706,-372 706,-372 706,-384 706,-384 706,-390 700,-396 694,-396"/>
<text text-anchor="middle" x="664.5" y="-381" font-family="sans" font-size="10.00">extract_var</text>
<text text-anchor="middle" x="664.5" y="-370" font-family="sans" font-size="10.00">variable: hurs</text>
</g>
<!-- 14&#45;&gt;13 -->
<g id="edge35" class="edge">
<title>14&#45;&gt;13</title>
<path fill="none" stroke="grey" stroke-width="2" d="M706.17,-362.85C709.32,-361.86 712.46,-360.9 715.5,-360 773.25,-342.97 841.01,-326.13 882.59,-316.15"/>
<polygon fill="grey" stroke="grey" stroke-width="2" points="883.41,-319.55 892.33,-313.83 881.79,-312.74 883.41,-319.55"/>
</g>
<!-- 15 -->
<g id="node16" class="node">
<title>15</title>
<path fill="none" stroke="#56d8c9" stroke-width="2" d="M979.5,-484C979.5,-484 833.5,-484 833.5,-484 827.5,-484 821.5,-478 821.5,-472 821.5,-472 821.5,-444 821.5,-444 821.5,-438 827.5,-432 833.5,-432 833.5,-432 979.5,-432 979.5,-432 985.5,-432 991.5,-438 991.5,-444 991.5,-444 991.5,-472 991.5,-472 991.5,-478 985.5,-484 979.5,-484"/>
<text text-anchor="middle" x="906.5" y="-472" font-family="sans" font-size="10.00">download</text>
<text text-anchor="middle" x="906.5" y="-461" font-family="sans" font-size="10.00">driving_model: MPI&#45;M&#45;MPI&#45;ESM</text>
<text text-anchor="middle" x="906.5" y="-450" font-family="sans" font-size="10.00">experiment: rcp26</text>
<text text-anchor="middle" x="906.5" y="-439" font-family="sans" font-size="10.00">rcm_model: ICTP&#45;RegCM4&#45;7</text>
</g>
<!-- 15&#45;&gt;14 -->
<g id="edge41" class="edge">
<title>15&#45;&gt;14</title>
<path fill="none" stroke="grey" stroke-width="2" d="M827.44,-432C795.44,-421.82 757.94,-409.81 715.86,-396.1"/>
<polygon fill="grey" stroke="grey" stroke-width="2" points="716.83,-392.73 706.23,-392.96 714.66,-399.39 716.83,-392.73"/>
</g>
<!-- 16 -->
<g id="node17" class="node">
<title>16</title>
<path fill="none" stroke="#78d856" stroke-width="2" d="M784.5,-396C784.5,-396 736.5,-396 736.5,-396 730.5,-396 724.5,-390 724.5,-384 724.5,-384 724.5,-372 724.5,-372 724.5,-366 730.5,-360 736.5,-360 736.5,-360 784.5,-360 784.5,-360 790.5,-360 796.5,-366 796.5,-372 796.5,-372 796.5,-384 796.5,-384 796.5,-390 790.5,-396 784.5,-396"/>
<text text-anchor="middle" x="760.5" y="-381" font-family="sans" font-size="10.00">extract_var</text>
<text text-anchor="middle" x="760.5" y="-370" font-family="sans" font-size="10.00">variable: pr</text>
</g>
<!-- 15&#45;&gt;16 -->
<g id="edge42" class="edge">
<title>15&#45;&gt;16</title>
<path fill="none" stroke="grey" stroke-width="2" d="M859.5,-431.89C840.9,-421.95 819.71,-410.63 801.72,-401.02"/>
<polygon fill="grey" stroke="grey" stroke-width="2" points="803.11,-397.8 792.64,-396.17 799.81,-403.97 803.11,-397.8"/>
</g>
<!-- 17 -->
<g id="node18" class="node">
<title>17</title>
<path fill="none" stroke="#78d856" stroke-width="2" d="M886,-396C886,-396 827,-396 827,-396 821,-396 815,-390 815,-384 815,-384 815,-372 815,-372 815,-366 821,-360 827,-360 827,-360 886,-360 886,-360 892,-360 898,-366 898,-372 898,-372 898,-384 898,-384 898,-390 892,-396 886,-396"/>
<text text-anchor="middle" x="856.5" y="-381" font-family="sans" font-size="10.00">extract_var</text>
<text text-anchor="middle" x="856.5" y="-370" font-family="sans" font-size="10.00">variable: rsds</text>
</g>
<!-- 15&#45;&gt;17 -->
<g id="edge43" class="edge">
<title>15&#45;&gt;17</title>
<path fill="none" stroke="grey" stroke-width="2" d="M890.4,-431.89C884.9,-423.3 878.72,-413.67 873.17,-405.01"/>
<polygon fill="grey" stroke="grey" stroke-width="2" points="876,-402.94 867.66,-396.41 870.11,-406.72 876,-402.94"/>
</g>
<!-- 18 -->
<g id="node19" class="node">
<title>18</title>
<path fill="none" stroke="#78d856" stroke-width="2" d="M987,-396C987,-396 928,-396 928,-396 922,-396 916,-390 916,-384 916,-384 916,-372 916,-372 916,-366 922,-360 928,-360 928,-360 987,-360 987,-360 993,-360 999,-366 999,-372 999,-372 999,-384 999,-384 999,-390 993,-396 987,-396"/>
<text text-anchor="middle" x="957.5" y="-381" font-family="sans" font-size="10.00">extract_var</text>
<text text-anchor="middle" x="957.5" y="-370" font-family="sans" font-size="10.00">variable: rsus</text>
</g>
<!-- 15&#45;&gt;18 -->
<g id="edge44" class="edge">
<title>15&#45;&gt;18</title>
<path fill="none" stroke="grey" stroke-width="2" d="M922.92,-431.89C928.54,-423.3 934.83,-413.67 940.5,-405.01"/>
<polygon fill="grey" stroke="grey" stroke-width="2" points="943.57,-406.7 946.12,-396.41 937.71,-402.86 943.57,-406.7"/>
</g>
<!-- 19 -->
<g id="node20" class="node">
<title>19</title>
<path fill="none" stroke="#78d856" stroke-width="2" d="M1106,-396C1106,-396 1029,-396 1029,-396 1023,-396 1017,-390 1017,-384 1017,-384 1017,-372 1017,-372 1017,-366 1023,-360 1029,-360 1029,-360 1106,-360 1106,-360 1112,-360 1118,-366 1118,-372 1118,-372 1118,-384 1118,-384 1118,-390 1112,-396 1106,-396"/>
<text text-anchor="middle" x="1067.5" y="-381" font-family="sans" font-size="10.00">extract_var</text>
<text text-anchor="middle" x="1067.5" y="-370" font-family="sans" font-size="10.00">variable: sfcWind</text>
</g>
<!-- 15&#45;&gt;19 -->
<g id="edge45" class="edge">
<title>15&#45;&gt;19</title>
<path fill="none" stroke="grey" stroke-width="2" d="M958.33,-431.89C979.12,-421.82 1002.85,-410.32 1022.86,-400.63"/>
<polygon fill="grey" stroke="grey" stroke-width="2" points="1024.59,-403.68 1032.06,-396.17 1021.53,-397.38 1024.59,-403.68"/>
</g>
<!-- 20 -->
<g id="node21" class="node">
<title>20</title>
<path fill="none" stroke="#78d856" stroke-width="2" d="M1201,-396C1201,-396 1148,-396 1148,-396 1142,-396 1136,-390 1136,-384 1136,-384 1136,-372 1136,-372 1136,-366 1142,-360 1148,-360 1148,-360 1201,-360 1201,-360 1207,-360 1213,-366 1213,-372 1213,-372 1213,-384 1213,-384 1213,-390 1207,-396 1201,-396"/>
<text text-anchor="middle" x="1174.5" y="-381" font-family="sans" font-size="10.00">extract_var</text>
<text text-anchor="middle" x="1174.5" y="-370" font-family="sans" font-size="10.00">variable: tas</text>
</g>
<!-- 15&#45;&gt;20 -->
<g id="edge46" class="edge">
<title>15&#45;&gt;20</title>
<path fill="none" stroke="grey" stroke-width="2" d="M991.53,-434.91C1030.04,-424.55 1076.28,-411.62 1126.12,-396.02"/>
<polygon fill="grey" stroke="grey" stroke-width="2" points="1127.32,-399.31 1135.81,-392.97 1125.22,-392.63 1127.32,-399.31"/>
</g>
<!-- 16&#45;&gt;13 -->
<g id="edge36" class="edge">
<title>16&#45;&gt;13</title>
<path fill="none" stroke="grey" stroke-width="2" d="M796.63,-361.29C822.39,-350.09 856.97,-335.06 883.21,-323.65"/>
<polygon fill="grey" stroke="grey" stroke-width="2" points="884.69,-326.82 892.47,-319.62 881.9,-320.4 884.69,-326.82"/>
</g>
<!-- 17&#45;&gt;13 -->
<g id="edge37" class="edge">
<title>17&#45;&gt;13</title>
<path fill="none" stroke="grey" stroke-width="2" d="M872.57,-359.7C880.44,-351.22 890.06,-340.86 898.67,-331.58"/>
<polygon fill="grey" stroke="grey" stroke-width="2" points="901.38,-333.81 905.62,-324.1 896.25,-329.05 901.38,-333.81"/>
</g>
<!-- 18&#45;&gt;13 -->
<g id="edge38" class="edge">
<title>18&#45;&gt;13</title>
<path fill="none" stroke="grey" stroke-width="2" d="M948.6,-359.7C944.5,-351.73 939.55,-342.1 935.01,-333.26"/>
<polygon fill="grey" stroke="grey" stroke-width="2" points="937.98,-331.4 930.3,-324.1 931.76,-334.6 937.98,-331.4"/>
</g>
<!-- 19&#45;&gt;13 -->
<g id="edge39" class="edge">
<title>19&#45;&gt;13</title>
<path fill="none" stroke="grey" stroke-width="2" d="M1031.78,-359.88C1010.07,-349.46 982.33,-336.17 960.11,-325.51"/>
<polygon fill="grey" stroke="grey" stroke-width="2" points="961.49,-322.29 950.96,-321.12 958.46,-328.6 961.49,-322.29"/>
</g>
<!-- 20&#45;&gt;13 -->
<g id="edge40" class="edge">
<title>20&#45;&gt;13</title>
<path fill="none" stroke="grey" stroke-width="2" d="M1135.82,-362.98C1132.68,-361.94 1129.54,-360.93 1126.5,-360 1069.3,-342.51 1002,-325.84 960.54,-316.02"/>
<polygon fill="grey" stroke="grey" stroke-width="2" points="961.12,-312.56 950.58,-313.67 959.51,-319.37 961.12,-312.56"/>
</g>
<!-- 21 -->
<g id="node22" class="node">
<title>21</title>
<path fill="none" stroke="#d85656" stroke-width="2" d="M1515,-180C1515,-180 1480,-180 1480,-180 1474,-180 1468,-174 1468,-168 1468,-168 1468,-156 1468,-156 1468,-150 1474,-144 1480,-144 1480,-144 1515,-144 1515,-144 1521,-144 1527,-150 1527,-156 1527,-156 1527,-168 1527,-168 1527,-174 1521,-180 1515,-180"/>
<text text-anchor="middle" x="1497.5" y="-159.5" font-family="sans" font-size="10.00">reformat</text>
</g>
<!-- 21&#45;&gt;0 -->
<g id="edge3" class="edge">
<title>21&#45;&gt;0</title>
<path fill="none" stroke="grey" stroke-width="2" d="M1467.87,-158.2C1425.89,-153.22 1347.75,-140.12 1289.5,-108 1269.13,-96.77 1272.34,-82.33 1251.5,-72 1156.16,-24.73 1027.56,-18.22 964.91,-18.16"/>
<polygon fill="grey" stroke="grey" stroke-width="2" points="964.71,-14.66 954.72,-18.2 964.74,-21.66 964.71,-14.66"/>
</g>
<!-- 41 -->
<g id="node42" class="node">
<title>41</title>
<path fill="none" stroke="#d8a456" stroke-width="2" d="M1384,-108C1384,-108 1311,-108 1311,-108 1305,-108 1299,-102 1299,-96 1299,-96 1299,-84 1299,-84 1299,-78 1305,-72 1311,-72 1311,-72 1384,-72 1384,-72 1390,-72 1396,-78 1396,-84 1396,-84 1396,-96 1396,-96 1396,-102 1390,-108 1384,-108"/>
<text text-anchor="middle" x="1347.5" y="-93" font-family="sans" font-size="10.00">plot</text>
<text text-anchor="middle" x="1347.5" y="-82" font-family="sans" font-size="10.00">variable: rainfall</text>
</g>
<!-- 21&#45;&gt;41 -->
<g id="edge71" class="edge">
<title>21&#45;&gt;41</title>
<path fill="none" stroke="grey" stroke-width="2" d="M1467.86,-147.17C1446.61,-137.25 1417.57,-123.7 1393.34,-112.39"/>
<polygon fill="grey" stroke="grey" stroke-width="2" points="1394.51,-109.08 1383.97,-108.02 1391.55,-115.42 1394.51,-109.08"/>
</g>
<!-- 42 -->
<g id="node43" class="node">
<title>42</title>
<path fill="none" stroke="#d8a456" stroke-width="2" d="M1485,-108C1485,-108 1426,-108 1426,-108 1420,-108 1414,-102 1414,-96 1414,-96 1414,-84 1414,-84 1414,-78 1420,-72 1426,-72 1426,-72 1485,-72 1485,-72 1491,-72 1497,-78 1497,-84 1497,-84 1497,-96 1497,-96 1497,-102 1491,-108 1485,-108"/>
<text text-anchor="middle" x="1455.5" y="-93" font-family="sans" font-size="10.00">plot</text>
<text text-anchor="middle" x="1455.5" y="-82" font-family="sans" font-size="10.00">variable: snet</text>
</g>
<!-- 21&#45;&gt;42 -->
<g id="edge72" class="edge">
<title>21&#45;&gt;42</title>
<path fill="none" stroke="grey" stroke-width="2" d="M1487.12,-143.7C1482.24,-135.56 1476.31,-125.69 1470.92,-116.7"/>
<polygon fill="grey" stroke="grey" stroke-width="2" points="1473.91,-114.88 1465.76,-108.1 1467.91,-118.48 1473.91,-114.88"/>
</g>
<!-- 43 -->
<g id="node44" class="node">
<title>43</title>
<path fill="none" stroke="#d8a456" stroke-width="2" d="M1626,-108C1626,-108 1527,-108 1527,-108 1521,-108 1515,-102 1515,-96 1515,-96 1515,-84 1515,-84 1515,-78 1521,-72 1527,-72 1527,-72 1626,-72 1626,-72 1632,-72 1638,-78 1638,-84 1638,-84 1638,-96 1638,-96 1638,-102 1632,-108 1626,-108"/>
<text text-anchor="middle" x="1576.5" y="-93" font-family="sans" font-size="10.00">plot</text>
<text text-anchor="middle" x="1576.5" y="-82" font-family="sans" font-size="10.00">variable: temperature</text>
</g>
<!-- 21&#45;&gt;43 -->
<g id="edge73" class="edge">
<title>21&#45;&gt;43</title>
<path fill="none" stroke="grey" stroke-width="2" d="M1517.03,-143.7C1526.88,-134.97 1538.99,-124.24 1549.7,-114.75"/>
<polygon fill="grey" stroke="grey" stroke-width="2" points="1552.03,-117.36 1557.2,-108.1 1547.39,-112.12 1552.03,-117.36"/>
</g>
<!-- 44 -->
<g id="node45" class="node">
<title>44</title>
<path fill="none" stroke="#d8a456" stroke-width="2" d="M1724.5,-108C1724.5,-108 1668.5,-108 1668.5,-108 1662.5,-108 1656.5,-102 1656.5,-96 1656.5,-96 1656.5,-84 1656.5,-84 1656.5,-78 1662.5,-72 1668.5,-72 1668.5,-72 1724.5,-72 1724.5,-72 1730.5,-72 1736.5,-78 1736.5,-84 1736.5,-84 1736.5,-96 1736.5,-96 1736.5,-102 1730.5,-108 1724.5,-108"/>
<text text-anchor="middle" x="1696.5" y="-93" font-family="sans" font-size="10.00">plot</text>
<text text-anchor="middle" x="1696.5" y="-82" font-family="sans" font-size="10.00">variable: vpd</text>
</g>
<!-- 21&#45;&gt;44 -->
<g id="edge74" class="edge">
<title>21&#45;&gt;44</title>
<path fill="none" stroke="grey" stroke-width="2" d="M1527.29,-150.52C1558.74,-139.46 1608.87,-121.82 1646.42,-108.62"/>
<polygon fill="grey" stroke="grey" stroke-width="2" points="1647.89,-111.81 1656.16,-105.19 1645.56,-105.21 1647.89,-111.81"/>
</g>
<!-- 45 -->
<g id="node46" class="node">
<title>45</title>
<path fill="none" stroke="#d8a456" stroke-width="2" d="M1818.5,-108C1818.5,-108 1766.5,-108 1766.5,-108 1760.5,-108 1754.5,-102 1754.5,-96 1754.5,-96 1754.5,-84 1754.5,-84 1754.5,-78 1760.5,-72 1766.5,-72 1766.5,-72 1818.5,-72 1818.5,-72 1824.5,-72 1830.5,-78 1830.5,-84 1830.5,-84 1830.5,-96 1830.5,-96 1830.5,-102 1824.5,-108 1818.5,-108"/>
<text text-anchor="middle" x="1792.5" y="-93" font-family="sans" font-size="10.00">plot</text>
<text text-anchor="middle" x="1792.5" y="-82" font-family="sans" font-size="10.00">variable: ws</text>
</g>
<!-- 21&#45;&gt;45 -->
<g id="edge75" class="edge">
<title>21&#45;&gt;45</title>
<path fill="none" stroke="grey" stroke-width="2" d="M1527.22,-156.01C1572.35,-148.13 1660.94,-131.53 1744.76,-108.01"/>
<polygon fill="grey" stroke="grey" stroke-width="2" points="1745.76,-111.37 1754.42,-105.26 1743.85,-104.63 1745.76,-111.37"/>
</g>
<!-- 22 -->
<g id="node23" class="node">
<title>22</title>
<path fill="none" stroke="#c6d856" stroke-width="2" d="M1522,-252C1522,-252 1473,-252 1473,-252 1467,-252 1461,-246 1461,-240 1461,-240 1461,-228 1461,-228 1461,-222 1467,-216 1473,-216 1473,-216 1522,-216 1522,-216 1528,-216 1534,-222 1534,-228 1534,-228 1534,-240 1534,-240 1534,-246 1528,-252 1522,-252"/>
<text text-anchor="middle" x="1497.5" y="-231.5" font-family="sans" font-size="10.00">extrapolate</text>
</g>
<!-- 22&#45;&gt;21 -->
<g id="edge47" class="edge">
<title>22&#45;&gt;21</title>
<path fill="none" stroke="grey" stroke-width="2" d="M1497.5,-215.7C1497.5,-207.98 1497.5,-198.71 1497.5,-190.11"/>
<polygon fill="grey" stroke="grey" stroke-width="2" points="1501,-190.1 1497.5,-180.1 1494,-190.1 1501,-190.1"/>
</g>
<!-- 23 -->
<g id="node24" class="node">
<title>23</title>
<path fill="none" stroke="#56a2d8" stroke-width="2" d="M1514.5,-324C1514.5,-324 1480.5,-324 1480.5,-324 1474.5,-324 1468.5,-318 1468.5,-312 1468.5,-312 1468.5,-300 1468.5,-300 1468.5,-294 1474.5,-288 1480.5,-288 1480.5,-288 1514.5,-288 1514.5,-288 1520.5,-288 1526.5,-294 1526.5,-300 1526.5,-300 1526.5,-312 1526.5,-312 1526.5,-318 1520.5,-324 1514.5,-324"/>
<text text-anchor="middle" x="1497.5" y="-303.5" font-family="sans" font-size="10.00">join_exp</text>
</g>
<!-- 23&#45;&gt;22 -->
<g id="edge48" class="edge">
<title>23&#45;&gt;22</title>
<path fill="none" stroke="grey" stroke-width="2" d="M1497.5,-287.7C1497.5,-279.98 1497.5,-270.71 1497.5,-262.11"/>
<polygon fill="grey" stroke="grey" stroke-width="2" points="1501,-262.1 1497.5,-252.1 1494,-262.1 1501,-262.1"/>
</g>
<!-- 24 -->
<g id="node25" class="node">
<title>24</title>
<path fill="none" stroke="#78d856" stroke-width="2" d="M1310,-396C1310,-396 1251,-396 1251,-396 1245,-396 1239,-390 1239,-384 1239,-384 1239,-372 1239,-372 1239,-366 1245,-360 1251,-360 1251,-360 1310,-360 1310,-360 1316,-360 1322,-366 1322,-372 1322,-372 1322,-384 1322,-384 1322,-390 1316,-396 1310,-396"/>
<text text-anchor="middle" x="1280.5" y="-381" font-family="sans" font-size="10.00">extract_var</text>
<text text-anchor="middle" x="1280.5" y="-370" font-family="sans" font-size="10.00">variable: hurs</text>
</g>
<!-- 24&#45;&gt;23 -->
<g id="edge49" class="edge">
<title>24&#45;&gt;23</title>
<path fill="none" stroke="grey" stroke-width="2" d="M1322.23,-363.04C1325.37,-362.01 1328.48,-360.98 1331.5,-360 1374.9,-345.84 1424.81,-329.96 1458.47,-319.31"/>
<polygon fill="grey" stroke="grey" stroke-width="2" points="1459.9,-322.53 1468.38,-316.18 1457.79,-315.85 1459.9,-322.53"/>
</g>
<!-- 25 -->
<g id="node26" class="node">
<title>25</title>
<path fill="none" stroke="#56d8c9" stroke-width="2" d="M1595.5,-484C1595.5,-484 1449.5,-484 1449.5,-484 1443.5,-484 1437.5,-478 1437.5,-472 1437.5,-472 1437.5,-444 1437.5,-444 1437.5,-438 1443.5,-432 1449.5,-432 1449.5,-432 1595.5,-432 1595.5,-432 1601.5,-432 1607.5,-438 1607.5,-444 1607.5,-444 1607.5,-472 1607.5,-472 1607.5,-478 1601.5,-484 1595.5,-484"/>
<text text-anchor="middle" x="1522.5" y="-472" font-family="sans" font-size="10.00">download</text>
<text text-anchor="middle" x="1522.5" y="-461" font-family="sans" font-size="10.00">driving_model: MPI&#45;M&#45;MPI&#45;ESM</text>
<text text-anchor="middle" x="1522.5" y="-450" font-family="sans" font-size="10.00">experiment: rcp85</text>
<text text-anchor="middle" x="1522.5" y="-439" font-family="sans" font-size="10.00">rcm_model: ICTP&#45;RegCM4&#45;7</text>
</g>
<!-- 25&#45;&gt;24 -->
<g id="edge55" class="edge">
<title>25&#45;&gt;24</title>
<path fill="none" stroke="grey" stroke-width="2" d="M1443.44,-432C1411.44,-421.82 1373.94,-409.81 1331.86,-396.1"/>
<polygon fill="grey" stroke="grey" stroke-width="2" points="1332.83,-392.73 1322.23,-392.96 1330.66,-399.39 1332.83,-392.73"/>
</g>
<!-- 26 -->
<g id="node27" class="node">
<title>26</title>
<path fill="none" stroke="#78d856" stroke-width="2" d="M1400.5,-396C1400.5,-396 1352.5,-396 1352.5,-396 1346.5,-396 1340.5,-390 1340.5,-384 1340.5,-384 1340.5,-372 1340.5,-372 1340.5,-366 1346.5,-360 1352.5,-360 1352.5,-360 1400.5,-360 1400.5,-360 1406.5,-360 1412.5,-366 1412.5,-372 1412.5,-372 1412.5,-384 1412.5,-384 1412.5,-390 1406.5,-396 1400.5,-396"/>
<text text-anchor="middle" x="1376.5" y="-381" font-family="sans" font-size="10.00">extract_var</text>
<text text-anchor="middle" x="1376.5" y="-370" font-family="sans" font-size="10.00">variable: pr</text>
</g>
<!-- 25&#45;&gt;26 -->
<g id="edge56" class="edge">
<title>25&#45;&gt;26</title>
<path fill="none" stroke="grey" stroke-width="2" d="M1475.5,-431.89C1456.9,-421.95 1435.71,-410.63 1417.72,-401.02"/>
<polygon fill="grey" stroke="grey" stroke-width="2" points="1419.11,-397.8 1408.64,-396.17 1415.81,-403.97 1419.11,-397.8"/>
</g>
<!-- 27 -->
<g id="node28" class="node">
<title>27</title>
<path fill="none" stroke="#78d856" stroke-width="2" d="M1502,-396C1502,-396 1443,-396 1443,-396 1437,-396 1431,-390 1431,-384 1431,-384 1431,-372 1431,-372 1431,-366 1437,-360 1443,-360 1443,-360 1502,-360 1502,-360 1508,-360 1514,-366 1514,-372 1514,-372 1514,-384 1514,-384 1514,-390 1508,-396 1502,-396"/>
<text text-anchor="middle" x="1472.5" y="-381" font-family="sans" font-size="10.00">extract_var</text>
<text text-anchor="middle" x="1472.5" y="-370" font-family="sans" font-size="10.00">variable: rsds</text>
</g>
<!-- 25&#45;&gt;27 -->
<g id="edge57" class="edge">
<title>25&#45;&gt;27</title>
<path fill="none" stroke="grey" stroke-width="2" d="M1506.4,-431.89C1500.9,-423.3 1494.72,-413.67 1489.17,-405.01"/>
<polygon fill="grey" stroke="grey" stroke-width="2" points="1492,-402.94 1483.66,-396.41 1486.11,-406.72 1492,-402.94"/>
</g>
<!-- 28 -->
<g id="node29" class="node">
<title>28</title>
<path fill="none" stroke="#78d856" stroke-width="2" d="M1603,-396C1603,-396 1544,-396 1544,-396 1538,-396 1532,-390 1532,-384 1532,-384 1532,-372 1532,-372 1532,-366 1538,-360 1544,-360 1544,-360 1603,-360 1603,-360 1609,-360 1615,-366 1615,-372 1615,-372 1615,-384 1615,-384 1615,-390 1609,-396 1603,-396"/>
<text text-anchor="middle" x="1573.5" y="-381" font-family="sans" font-size="10.00">extract_var</text>
<text text-anchor="middle" x="1573.5" y="-370" font-family="sans" font-size="10.00">variable: rsus</text>
</g>
<!-- 25&#45;&gt;28 -->
<g id="edge58" class="edge">
<title>25&#45;&gt;28</title>
<path fill="none" stroke="grey" stroke-width="2" d="M1538.92,-431.89C1544.54,-423.3 1550.83,-413.67 1556.5,-405.01"/>
<polygon fill="grey" stroke="grey" stroke-width="2" points="1559.57,-406.7 1562.12,-396.41 1553.71,-402.86 1559.57,-406.7"/>
</g>
<!-- 29 -->
<g id="node30" class="node">
<title>29</title>
<path fill="none" stroke="#78d856" stroke-width="2" d="M1722,-396C1722,-396 1645,-396 1645,-396 1639,-396 1633,-390 1633,-384 1633,-384 1633,-372 1633,-372 1633,-366 1639,-360 1645,-360 1645,-360 1722,-360 1722,-360 1728,-360 1734,-366 1734,-372 1734,-372 1734,-384 1734,-384 1734,-390 1728,-396 1722,-396"/>
<text text-anchor="middle" x="1683.5" y="-381" font-family="sans" font-size="10.00">extract_var</text>
<text text-anchor="middle" x="1683.5" y="-370" font-family="sans" font-size="10.00">variable: sfcWind</text>
</g>
<!-- 25&#45;&gt;29 -->
<g id="edge59" class="edge">
<title>25&#45;&gt;29</title>
<path fill="none" stroke="grey" stroke-width="2" d="M1574.33,-431.89C1595.12,-421.82 1618.85,-410.32 1638.86,-400.63"/>
<polygon fill="grey" stroke="grey" stroke-width="2" points="1640.59,-403.68 1648.06,-396.17 1637.53,-397.38 1640.59,-403.68"/>
</g>
<!-- 30 -->
<g id="node31" class="node">
<title>30</title>
<path fill="none" stroke="#78d856" stroke-width="2" d="M1817,-396C1817,-396 1764,-396 1764,-396 1758,-396 1752,-390 1752,-384 1752,-384 1752,-372 1752,-372 1752,-366 1758,-360 1764,-360 1764,-360 1817,-360 1817,-360 1823,-360 1829,-366 1829,-372 1829,-372 1829,-384 1829,-384 1829,-390 1823,-396 1817,-396"/>
<text text-anchor="middle" x="1790.5" y="-381" font-family="sans" font-size="10.00">extract_var</text>
<text text-anchor="middle" x="1790.5" y="-370" font-family="sans" font-size="10.00">variable: tas</text>
</g>
<!-- 25&#45;&gt;30 -->
<g id="edge60" class="edge">
<title>25&#45;&gt;30</title>
<path fill="none" stroke="grey" stroke-width="2" d="M1607.7,-435.14C1646.44,-424.81 1693,-411.84 1742.29,-396.29"/>
<polygon fill="grey" stroke="grey" stroke-width="2" points="1743.38,-399.61 1751.85,-393.25 1741.26,-392.94 1743.38,-399.61"/>
</g>
<!-- 26&#45;&gt;23 -->
<g id="edge50" class="edge">
<title>26&#45;&gt;23</title>
<path fill="none" stroke="grey" stroke-width="2" d="M1406.1,-359.88C1422.19,-350.57 1442.26,-338.96 1459.49,-328.99"/>
<polygon fill="grey" stroke="grey" stroke-width="2" points="1461.3,-331.98 1468.21,-323.95 1457.8,-325.93 1461.3,-331.98"/>
</g>
<!-- 27&#45;&gt;23 -->
<g id="edge51" class="edge">
<title>27&#45;&gt;23</title>
<path fill="none" stroke="grey" stroke-width="2" d="M1478.68,-359.7C1481.5,-351.81 1484.89,-342.3 1488.02,-333.55"/>
<polygon fill="grey" stroke="grey" stroke-width="2" points="1491.32,-334.7 1491.39,-324.1 1484.73,-332.34 1491.32,-334.7"/>
</g>
<!-- 28&#45;&gt;23 -->
<g id="edge52" class="edge">
<title>28&#45;&gt;23</title>
<path fill="none" stroke="grey" stroke-width="2" d="M1554.71,-359.7C1545.33,-351.05 1533.82,-340.45 1523.59,-331.03"/>
<polygon fill="grey" stroke="grey" stroke-width="2" points="1525.8,-328.3 1516.07,-324.1 1521.05,-333.45 1525.8,-328.3"/>
</g>
<!-- 29&#45;&gt;23 -->
<g id="edge53" class="edge">
<title>29&#45;&gt;23</title>
<path fill="none" stroke="grey" stroke-width="2" d="M1638,-359.88C1606.79,-348.13 1565.82,-332.71 1536.19,-321.56"/>
<polygon fill="grey" stroke="grey" stroke-width="2" points="1537.19,-318.2 1526.6,-317.95 1534.73,-324.75 1537.19,-318.2"/>
</g>
<!-- 30&#45;&gt;23 -->
<g id="edge54" class="edge">
<title>30&#45;&gt;23</title>
<path fill="none" stroke="grey" stroke-width="2" d="M1751.91,-362.57C1749.08,-361.66 1746.25,-360.79 1743.5,-360 1671.52,-339.33 1585.63,-322.58 1536.74,-313.76"/>
<polygon fill="grey" stroke="grey" stroke-width="2" points="1537.06,-310.26 1526.6,-311.95 1535.83,-317.16 1537.06,-310.26"/>
</g>
<!-- 31&#45;&gt;0 -->
<g id="edge4" class="edge">
<title>31&#45;&gt;0</title>
<path fill="none" stroke="grey" stroke-width="2" d="M220.15,-73.74C222.96,-73.1 225.76,-72.51 228.5,-72 478.13,-25.86 785.02,-19.72 890.14,-19.03"/>
<polygon fill="grey" stroke="grey" stroke-width="2" points="890.26,-22.53 900.24,-18.98 890.23,-15.53 890.26,-22.53"/>
</g>
<!-- 32&#45;&gt;0 -->
<g id="edge5" class="edge">
<title>32&#45;&gt;0</title>
<path fill="none" stroke="grey" stroke-width="2" d="M321.03,-74.05C323.88,-73.28 326.72,-72.59 329.5,-72 538.16,-27.95 795.29,-20.46 890.11,-19.22"/>
<polygon fill="grey" stroke="grey" stroke-width="2" points="890.38,-22.72 900.34,-19.11 890.3,-15.72 890.38,-22.72"/>
</g>
<!-- 33&#45;&gt;0 -->
<g id="edge6" class="edge">
<title>33&#45;&gt;0</title>
<path fill="none" stroke="grey" stroke-width="2" d="M462.36,-73.73C465.45,-73.11 468.5,-72.53 471.5,-72 625.71,-44.68 811.86,-28.07 890.05,-21.83"/>
<polygon fill="grey" stroke="grey" stroke-width="2" points="890.66,-25.29 900.35,-21.02 890.11,-18.31 890.66,-25.29"/>
</g>
<!-- 34&#45;&gt;0 -->
<g id="edge7" class="edge">
<title>34&#45;&gt;0</title>
<path fill="none" stroke="grey" stroke-width="2" d="M560.7,-74.39C563.66,-73.52 566.61,-72.71 569.5,-72 684.53,-43.79 824.27,-28.39 889.95,-22.23"/>
<polygon fill="grey" stroke="grey" stroke-width="2" points="890.58,-25.68 900.22,-21.28 889.94,-18.71 890.58,-25.68"/>
</g>
<!-- 35&#45;&gt;0 -->
<g id="edge8" class="edge">
<title>35&#45;&gt;0</title>
<path fill="none" stroke="grey" stroke-width="2" d="M654.69,-75.97C659.32,-74.55 664,-73.19 668.5,-72 746.58,-51.32 839.7,-34.03 890.29,-25.24"/>
<polygon fill="grey" stroke="grey" stroke-width="2" points="891.16,-28.64 900.42,-23.49 889.97,-21.74 891.16,-28.64"/>
</g>
<!-- 36&#45;&gt;0 -->
<g id="edge9" class="edge">
<title>36&#45;&gt;0</title>
<path fill="none" stroke="grey" stroke-width="2" d="M800.6,-71.88C828.28,-60.34 864.47,-45.26 891.11,-34.16"/>
<polygon fill="grey" stroke="grey" stroke-width="2" points="892.58,-37.34 900.46,-30.27 889.88,-30.88 892.58,-37.34"/>
</g>
<!-- 37&#45;&gt;0 -->
<g id="edge10" class="edge">
<title>37&#45;&gt;0</title>
<path fill="none" stroke="grey" stroke-width="2" d="M882.33,-71.7C889.52,-63.3 898.3,-53.07 906.19,-43.86"/>
<polygon fill="grey" stroke="grey" stroke-width="2" points="908.99,-45.97 912.84,-36.1 903.67,-41.42 908.99,-45.97"/>
</g>
<!-- 38&#45;&gt;0 -->
<g id="edge11" class="edge">
<title>38&#45;&gt;0</title>
<path fill="none" stroke="grey" stroke-width="2" d="M973.42,-71.7C966.11,-63.3 957.19,-53.07 949.16,-43.86"/>
<polygon fill="grey" stroke="grey" stroke-width="2" points="951.61,-41.34 942.41,-36.1 946.34,-45.94 951.61,-41.34"/>
</g>
<!-- 39&#45;&gt;0 -->
<g id="edge12" class="edge">
<title>39&#45;&gt;0</title>
<path fill="none" stroke="grey" stroke-width="2" d="M1068.33,-73.46C1037.13,-61.4 994.23,-44.81 964,-33.11"/>
<polygon fill="grey" stroke="grey" stroke-width="2" points="965.25,-29.85 954.66,-29.5 962.72,-36.37 965.25,-29.85"/>
</g>
<!-- 40&#45;&gt;0 -->
<g id="edge13" class="edge">
<title>40&#45;&gt;0</title>
<path fill="none" stroke="grey" stroke-width="2" d="M1166.41,-74.79C1163.41,-73.8 1160.41,-72.86 1157.5,-72 1090.41,-52.21 1010.52,-35.25 964.74,-26.14"/>
<polygon fill="grey" stroke="grey" stroke-width="2" points="965.17,-22.66 954.68,-24.16 963.82,-29.53 965.17,-22.66"/>
</g>
<!-- 41&#45;&gt;0 -->
<g id="edge14" class="edge">
<title>41&#45;&gt;0</title>
<path fill="none" stroke="grey" stroke-width="2" d="M1298.8,-75.26C1293.98,-74.08 1289.16,-72.97 1284.5,-72 1168.87,-47.9 1029.96,-30.56 964.75,-23.08"/>
<polygon fill="grey" stroke="grey" stroke-width="2" points="964.89,-19.58 954.56,-21.93 964.1,-26.53 964.89,-19.58"/>
</g>
<!-- 42&#45;&gt;0 -->
<g id="edge15" class="edge">
<title>42&#45;&gt;0</title>
<path fill="none" stroke="grey" stroke-width="2" d="M1413.95,-74.36C1410.78,-73.48 1407.6,-72.68 1404.5,-72 1243.28,-36.59 1045.93,-24.25 964.92,-20.47"/>
<polygon fill="grey" stroke="grey" stroke-width="2" points="964.87,-16.97 954.72,-20.02 964.55,-23.96 964.87,-16.97"/>
</g>
<!-- 43&#45;&gt;0 -->
<g id="edge16" class="edge">
<title>43&#45;&gt;0</title>
<path fill="none" stroke="grey" stroke-width="2" d="M1514.76,-73.49C1511.98,-72.95 1509.21,-72.45 1506.5,-72 1303.68,-38.28 1057.07,-24.67 964.75,-20.51"/>
<polygon fill="grey" stroke="grey" stroke-width="2" points="964.66,-17 954.52,-20.06 964.35,-24 964.66,-17"/>
</g>
<!-- 44&#45;&gt;0 -->
<g id="edge17" class="edge">
<title>44&#45;&gt;0</title>
<path fill="none" stroke="grey" stroke-width="2" d="M1656.36,-74.14C1653.38,-73.33 1650.41,-72.6 1647.5,-72 1390.58,-18.93 1072.46,-17.21 964.97,-18.35"/>
<polygon fill="grey" stroke="grey" stroke-width="2" points="964.61,-14.85 954.65,-18.48 964.7,-21.85 964.61,-14.85"/>
</g>
<!-- 45&#45;&gt;0 -->
<g id="edge18" class="edge">
<title>45&#45;&gt;0</title>
<path fill="none" stroke="grey" stroke-width="2" d="M1754.28,-74.18C1751.34,-73.35 1748.39,-72.6 1745.5,-72 1593.1,-40.17 1103.67,-24.03 964.64,-20.02"/>
<polygon fill="grey" stroke="grey" stroke-width="2" points="964.6,-16.51 954.5,-19.73 964.4,-23.51 964.6,-16.51"/>
</g>
</g>
</svg>
